<svg xmlns="http://www.w3.org/2000/svg" xmlns:xlink="http://www.w3.org/1999/xlink" width="940" zoomAndPan="magnify" viewBox="0 0 705 591.000005" height="788" preserveAspectRatio="xMidYMid meet" version="1.0"><defs><clipPath id="ac5a532617"><path d="M 2 168.167969 L 704 168.167969 L 704 421.988281 L 2 421.988281 Z M 2 168.167969 " clip-rule="nonzero"/></clipPath></defs><g clip-path="url(#ac5a532617)"><path fill="#c60c0d" d="M 658.703125 168.109375 C 663.167969 168.109375 667.078125 171.382812 667.746094 175.933594 C 668.097656 178.34375 667.476562 180.671875 666.179688 182.519531 C 674.40625 180.125 682.792969 177.6875 691.335938 175.203125 C 692.1875 174.957031 693.046875 174.839844 693.890625 174.839844 C 697.859375 174.839844 701.511719 177.4375 702.675781 181.4375 C 704.085938 186.289062 701.292969 191.367188 696.441406 192.777344 C 617.578125 215.691406 552.277344 234.871094 500.539062 250.316406 L 500.550781 250.316406 C 433.773438 278.3125 372.292969 302.363281 316.109375 322.464844 C 230.050781 353.351562 136.613281 384.082031 35.785156 414.660156 L 35.800781 414.660156 C 23.855469 418.722656 16.597656 421 14.019531 421.488281 C 13.019531 421.679688 12.082031 421.773438 11.203125 421.773438 C 7.097656 421.773438 4.316406 419.695312 2.863281 415.539062 L 2.859375 415.527344 C 1.695312 412.183594 2.277344 409.15625 4.605469 406.449219 C 5.742188 405.121094 7.242188 404.152344 8.914062 403.648438 C 16.132812 401.484375 23.3125 399.316406 30.457031 397.152344 L 30.472656 397.152344 C 34.703125 395.703125 39.589844 394.011719 45.128906 392.074219 L 45.144531 392.074219 C 218.117188 325.230469 321.324219 286.800781 354.757812 276.78125 L 354.769531 276.78125 C 373.050781 269.976562 419.570312 255.410156 494.324219 233.078125 L 494.335938 233.078125 C 530.519531 217.902344 568.269531 201.558594 607.589844 184.050781 C 607.71875 183.992188 607.851562 183.9375 607.988281 183.882812 C 631.121094 174.867188 647.578125 169.644531 657.363281 168.207031 C 657.8125 168.140625 658.261719 168.109375 658.703125 168.109375 Z M 658.703125 168.109375 " fill-opacity="1" fill-rule="nonzero"/></g><path fill="#c60c0d" d="M 679.5625 400.328125 L 679.5625 400.328125 M 85.21875 253.710938 L 85.464844 253.714844 C 102.835938 256.140625 149.078125 265.050781 224.1875 280.4375 L 300.992188 294.292969 C 314.660156 296.996094 328.832031 299.921875 343.511719 303.066406 L 401.371094 315.988281 C 517.808594 344.210938 611.824219 366.347656 683.410156 382.398438 C 691.9375 384.359375 694.105469 389.53125 689.914062 397.910156 C 687.636719 401.789062 680.988281 402.011719 669.960938 398.574219 C 673.265625 406.019531 670.71875 410.757812 662.328125 412.792969 C 660.789062 412.734375 659.554688 412.472656 658.625 412.003906 C 652.289062 408.128906 643.914062 404.273438 633.492188 400.433594 L 615.167969 394.074219 C 601.542969 389.632812 585.101562 384.800781 565.839844 379.574219 C 535.582031 370.996094 477.519531 357.085938 391.660156 337.84375 C 320.753906 322.320312 205.257812 301.234375 45.167969 274.582031 C 37.21875 270.425781 36.660156 264.820312 43.484375 257.769531 C 44.707031 257.054688 46.242188 256.691406 48.089844 256.679688 C 54.085938 256.816406 63.738281 257.511719 77.046875 258.761719 C 78.792969 255.550781 81.519531 253.867188 85.21875 253.710938 " fill-opacity="1" fill-rule="nonzero"/></svg>