<svg xmlns="http://www.w3.org/2000/svg" xmlns:xlink="http://www.w3.org/1999/xlink" width="500" zoomAndPan="magnify" viewBox="0 0 375 374.999991" height="500" preserveAspectRatio="xMidYMid meet" version="1.0"><path fill="#336164" d="M 117.1875 251.367188 L 75 259.570312 C 72.65625 260.15625 70.898438 261.328125 70.3125 263.671875 C 69.726562 266.015625 70.3125 267.773438 72.070312 269.53125 L 76.757812 274.21875 L 46.875 303.515625 C 45.703125 304.6875 45.117188 305.859375 45.117188 307.617188 C 45.117188 309.375 45.703125 310.546875 46.875 311.71875 L 63.28125 328.125 C 65.625 330.46875 69.140625 330.46875 71.484375 328.125 L 101.367188 298.242188 L 106.054688 302.929688 C 109.570312 306.445312 114.84375 304.6875 116.015625 300 L 124.21875 257.8125 C 124.804688 256.054688 124.21875 253.710938 122.460938 252.539062 C 120.703125 251.367188 118.945312 250.78125 117.1875 251.367188 Z M 117.1875 251.367188 " fill-opacity="1" fill-rule="nonzero"/><path fill="#336164" d="M 48.046875 211.523438 C 48.046875 216.210938 53.320312 219.140625 57.421875 216.210938 L 93.164062 192.1875 C 94.921875 191.015625 95.507812 189.257812 95.507812 187.5 C 95.507812 185.742188 94.335938 183.398438 93.164062 182.8125 L 56.835938 158.203125 C 55.078125 157.03125 52.734375 157.03125 50.976562 158.203125 C 49.21875 159.375 48.046875 161.132812 48.046875 163.476562 L 48.046875 169.921875 L 5.859375 169.921875 C 2.34375 169.921875 0 172.265625 0 175.78125 L 0 199.21875 C 0 202.148438 2.34375 205.078125 5.859375 205.078125 L 48.046875 205.078125 Z M 48.046875 211.523438 " fill-opacity="1" fill-rule="nonzero"/><path fill="#336164" d="M 369.140625 169.921875 L 326.953125 169.921875 L 326.953125 162.890625 C 326.953125 158.203125 321.679688 155.273438 317.578125 158.203125 L 281.835938 182.226562 C 280.078125 183.398438 279.492188 185.15625 279.492188 186.914062 C 279.492188 188.671875 280.664062 190.429688 281.835938 191.601562 L 317.578125 215.625 C 321.09375 217.96875 326.953125 215.625 326.953125 210.9375 L 326.953125 205.078125 L 369.140625 205.078125 C 372.65625 205.078125 375 202.148438 375 199.21875 L 375 175.78125 C 375 172.851562 372.65625 169.921875 369.140625 169.921875 Z M 369.140625 169.921875 " fill-opacity="1" fill-rule="nonzero"/><path fill="#336164" d="M 76.757812 100.78125 L 71.484375 105.46875 C 67.96875 108.984375 69.726562 114.257812 74.414062 115.429688 L 116.601562 123.632812 C 118.359375 124.21875 120.117188 123.632812 121.875 121.875 C 123.046875 120.703125 123.632812 118.359375 123.632812 116.601562 L 115.429688 74.414062 C 114.257812 69.726562 108.984375 67.96875 105.46875 71.484375 L 100.78125 76.171875 L 71.484375 46.875 C 69.140625 44.53125 65.625 44.53125 63.28125 46.875 L 46.875 63.28125 C 44.53125 65.625 44.53125 69.140625 46.875 71.484375 Z M 76.757812 100.78125 " fill-opacity="1" fill-rule="nonzero"/><path fill="#336164" d="M 182.8125 92.578125 C 183.984375 94.335938 185.742188 94.921875 187.5 94.921875 C 189.257812 94.921875 191.015625 93.75 192.1875 92.578125 L 216.210938 56.835938 C 219.140625 53.320312 216.210938 47.460938 211.523438 47.460938 L 205.078125 47.460938 L 205.078125 5.859375 C 205.078125 2.34375 202.734375 0 199.21875 0 L 175.78125 0 C 172.265625 0 169.921875 2.34375 169.921875 5.859375 L 169.921875 48.046875 L 162.890625 48.046875 C 158.203125 48.046875 155.273438 53.320312 158.203125 57.421875 Z M 182.8125 92.578125 " fill-opacity="1" fill-rule="nonzero"/><path fill="#336164" d="M 257.8125 123.632812 L 300 115.429688 C 304.6875 114.84375 306.445312 108.984375 302.929688 105.46875 L 298.242188 100.78125 L 328.125 70.898438 C 329.296875 69.726562 329.882812 68.554688 329.882812 66.796875 C 329.882812 65.039062 329.296875 63.867188 328.125 62.695312 L 311.71875 46.875 C 309.375 44.53125 305.859375 44.53125 303.515625 46.875 L 273.632812 76.757812 L 268.945312 72.070312 C 267.1875 70.3125 265.429688 70.3125 263.085938 70.3125 C 260.742188 70.898438 259.570312 72.65625 258.984375 75 L 251.367188 117.1875 C 250.195312 120.703125 253.710938 124.21875 257.8125 123.632812 Z M 257.8125 123.632812 " fill-opacity="1" fill-rule="nonzero"/><path fill="#336164" d="M 298.242188 274.21875 L 302.929688 269.53125 C 306.445312 266.015625 304.6875 260.742188 300 259.570312 L 257.8125 251.367188 C 256.054688 250.78125 253.710938 251.367188 252.539062 253.125 C 251.367188 254.296875 250.78125 256.640625 250.78125 258.398438 L 258.984375 300.585938 C 260.15625 305.273438 265.429688 307.03125 268.945312 303.515625 L 273.632812 298.828125 L 303.515625 328.710938 C 305.859375 331.054688 309.375 331.054688 311.71875 328.710938 L 328.125 312.304688 C 330.46875 309.960938 330.46875 306.445312 328.125 304.101562 Z M 298.242188 274.21875 " fill-opacity="1" fill-rule="nonzero"/><path fill="#336164" d="M 192.1875 282.421875 C 189.84375 279.492188 184.570312 279.492188 182.226562 282.421875 L 158.203125 318.164062 C 155.273438 321.679688 158.203125 327.539062 162.890625 327.539062 L 169.921875 327.539062 L 169.921875 369.140625 C 169.921875 372.65625 172.265625 375 175.78125 375 L 199.21875 375 C 202.734375 375 205.078125 372.65625 205.078125 369.140625 L 205.078125 326.953125 L 212.109375 326.953125 C 216.796875 326.953125 219.726562 321.679688 216.796875 317.578125 Z M 192.1875 282.421875 " fill-opacity="1" fill-rule="nonzero"/><path fill="#336164" d="M 270.703125 187.5 C 270.703125 141.210938 233.203125 104.296875 187.5 104.296875 C 141.210938 104.296875 104.296875 141.796875 104.296875 187.5 C 104.296875 208.007812 111.914062 226.757812 124.21875 241.40625 C 124.21875 241.40625 124.804688 241.992188 124.804688 241.992188 C 140.039062 259.570312 162.890625 271.289062 188.085938 271.289062 C 213.28125 271.289062 236.132812 260.15625 251.367188 241.992188 C 251.367188 241.992188 251.953125 241.40625 251.953125 241.40625 C 263.671875 226.757812 270.703125 208.007812 270.703125 187.5 Z M 242.578125 206.25 C 232.617188 198.632812 222.65625 193.359375 212.109375 189.84375 C 215.039062 185.15625 216.796875 179.296875 216.796875 173.4375 C 216.796875 157.03125 203.320312 143.554688 186.914062 143.554688 C 170.507812 143.554688 157.03125 157.03125 157.03125 173.4375 C 157.03125 179.296875 158.789062 185.15625 161.71875 189.84375 C 151.757812 193.359375 141.796875 198.632812 132.421875 205.664062 C 127.734375 209.179688 124.21875 215.039062 123.632812 221.484375 C 118.359375 211.523438 115.429688 199.804688 115.429688 188.085938 C 115.429688 148.242188 147.65625 116.601562 186.914062 116.601562 C 226.171875 116.601562 258.398438 148.828125 258.398438 188.085938 C 258.398438 200.390625 255.46875 211.523438 250.195312 221.484375 C 250.195312 215.039062 247.265625 209.765625 242.578125 206.25 Z M 242.578125 206.25 " fill-opacity="1" fill-rule="nonzero"/></svg>