<svg xmlns="http://www.w3.org/2000/svg" xmlns:xlink="http://www.w3.org/1999/xlink" width="500" zoomAndPan="magnify" viewBox="0 0 375 374.999991" height="500" preserveAspectRatio="xMidYMid meet" version="1.0"><defs><clipPath id="22aa1669c3"><path d="M 0 0 L 375 0 L 375 374.25 L 0 374.25 Z M 0 0 " clip-rule="nonzero"/></clipPath></defs><g clip-path="url(#22aa1669c3)"><path fill="#861f80" d="M 369.964844 245.144531 C 372.171875 241.746094 374.914062 237.519531 373.96875 232.148438 C 373.386719 228.839844 371.605469 226.09375 370.03125 223.667969 C 369.019531 222.109375 367.871094 220.339844 367.675781 219.222656 C 367.476562 218.105469 367.953125 216.046875 368.371094 214.230469 C 369.167969 210.773438 370.066406 206.851562 368.613281 202.84375 C 367.125 198.742188 363.714844 196.164062 360.976562 194.09375 C 359.535156 193 357.898438 191.765625 357.382812 190.875 C 356.835938 189.925781 356.578125 187.851562 356.347656 186.023438 C 355.925781 182.652344 355.402344 178.457031 352.636719 175.167969 C 349.855469 171.855469 345.789062 170.609375 342.519531 169.605469 C 340.773438 169.070312 338.789062 168.464844 337.980469 167.785156 C 337.164062 167.101562 336.21875 165.25 335.382812 163.617188 C 333.828125 160.582031 331.894531 156.804688 328.164062 154.648438 C 324.441406 152.496094 320.207031 152.703125 316.804688 152.871094 C 314.96875 152.964844 312.882812 153.066406 311.875 152.699219 C 311.414062 152.53125 310.835938 152.125 310.210938 151.621094 C 309.332031 111.371094 293.203125 73.664062 264.59375 45.183594 C 235.332031 16.046875 196.472656 0 155.179688 0 C 69.664062 0 0.0898438 69.570312 0.0898438 155.089844 C 0.0898438 240.605469 69.664062 310.175781 155.179688 310.175781 C 176.722656 310.175781 197.535156 305.839844 217.085938 297.308594 C 217.386719 297.445312 217.6875 297.570312 217.984375 297.691406 L 196.078125 344.742188 C 195.132812 346.78125 195.394531 349.175781 196.761719 350.960938 C 198.128906 352.742188 200.375 353.617188 202.585938 353.234375 L 227.949219 348.800781 L 240.886719 371.0625 C 241.96875 372.925781 243.957031 374.0625 246.101562 374.0625 C 246.191406 374.0625 246.285156 374.0625 246.375 374.058594 C 248.621094 373.953125 250.625 372.613281 251.570312 370.578125 L 273.109375 324.320312 C 274.628906 323.859375 276.074219 323.25 277.441406 322.675781 C 279.152344 321.953125 281.085938 321.140625 282.171875 321.136719 C 283.179688 321.136719 285.058594 321.929688 286.714844 322.632812 C 289.488281 323.804688 292.855469 325.226562 296.542969 325.054688 L 312.117188 361.207031 C 313.003906 363.269531 314.96875 364.667969 317.207031 364.835938 C 317.359375 364.847656 317.507812 364.851562 317.65625 364.851562 C 319.734375 364.851562 321.675781 363.78125 322.78125 362 L 336.359375 340.125 L 361.582031 345.289062 C 363.785156 345.742188 366.054688 344.929688 367.472656 343.1875 C 368.890625 341.441406 369.222656 339.054688 368.332031 336.992188 L 350.445312 295.460938 C 351.226562 294.878906 351.96875 294.210938 352.628906 293.417969 C 355.398438 290.117188 355.921875 285.90625 356.34375 282.519531 C 356.570312 280.699219 356.828125 278.636719 357.363281 277.714844 C 357.890625 276.800781 359.546875 275.550781 361.007812 274.445312 C 363.734375 272.390625 367.128906 269.828125 368.609375 265.765625 C 370.082031 261.726562 369.140625 257.605469 368.382812 254.292969 C 367.972656 252.496094 367.507812 250.460938 367.699219 249.378906 C 367.878906 248.355469 368.988281 246.652344 369.964844 245.144531 Z M 12.160156 155.089844 C 12.160156 76.226562 76.316406 12.066406 155.179688 12.066406 C 230.046875 12.066406 291.871094 70.164062 297.738281 143.640625 C 293.699219 143.066406 290.089844 144.578125 286.898438 145.925781 C 285.191406 146.644531 283.253906 147.460938 282.167969 147.460938 C 281.15625 147.460938 279.28125 146.667969 277.625 145.96875 C 274.457031 144.628906 270.515625 142.960938 266.199219 143.722656 C 261.886719 144.484375 258.75 147.398438 256.234375 149.738281 C 254.914062 150.964844 253.421875 152.355469 252.472656 152.699219 C 251.453125 153.066406 249.355469 152.964844 247.507812 152.871094 C 243.929688 152.695312 239.871094 152.492188 236.171875 154.628906 C 232.414062 156.800781 230.476562 160.597656 228.917969 163.644531 C 228.089844 165.269531 227.152344 167.105469 226.351562 167.777344 C 225.527344 168.46875 223.535156 169.085938 221.777344 169.628906 C 220.445312 170.039062 218.980469 170.496094 217.523438 171.113281 C 207.429688 160.648438 194.976562 152.984375 181.347656 148.667969 C 193.78125 140.25 201.96875 126.015625 201.96875 109.902344 C 201.96875 84.105469 180.976562 63.113281 155.179688 63.113281 C 129.382812 63.113281 108.390625 84.105469 108.390625 109.902344 C 108.390625 126.011719 116.578125 140.246094 129.007812 148.667969 C 93.988281 159.789062 68.539062 192.609375 68.539062 231.261719 C 68.539062 234.59375 71.242188 237.296875 74.574219 237.296875 L 190.5625 237.296875 C 191.277344 240.226562 192.875 242.714844 194.308594 244.929688 C 195.320312 246.488281 196.46875 248.261719 196.664062 249.375 C 196.863281 250.496094 196.390625 252.550781 195.972656 254.367188 C 195.175781 257.824219 194.277344 261.746094 195.730469 265.753906 C 197.214844 269.855469 200.625 272.433594 203.363281 274.503906 C 204.808594 275.597656 206.445312 276.832031 206.960938 277.726562 C 207.507812 278.671875 207.765625 280.746094 207.996094 282.574219 C 208.195312 284.15625 208.417969 285.914062 208.878906 287.675781 C 191.84375 294.597656 173.8125 298.109375 155.179688 298.109375 C 76.316406 298.109375 12.160156 233.949219 12.160156 155.089844 Z M 195.957031 214.304688 C 196.367188 216.101562 196.832031 218.140625 196.644531 219.21875 C 196.460938 220.242188 195.355469 221.945312 194.378906 223.453125 C 194.007812 224.019531 193.625 224.613281 193.246094 225.226562 L 80.847656 225.226562 C 83.929688 186.917969 116.089844 156.6875 155.179688 156.6875 C 175.671875 156.6875 195.140625 165.085938 209.199219 179.855469 C 208.507812 181.984375 208.234375 184.164062 207.996094 186.078125 C 207.769531 187.898438 207.511719 189.964844 206.976562 190.882812 C 206.453125 191.796875 204.796875 193.042969 203.339844 194.144531 C 200.609375 196.207031 197.214844 198.769531 195.730469 202.832031 C 194.257812 206.867188 195.199219 210.992188 195.957031 214.304688 Z M 155.179688 144.621094 C 136.035156 144.621094 120.460938 129.046875 120.460938 109.902344 C 120.460938 90.757812 136.035156 75.179688 155.179688 75.179688 C 174.324219 75.179688 189.902344 90.757812 189.902344 109.902344 C 189.902344 129.046875 174.324219 144.621094 155.179688 144.621094 Z M 245.511719 355.003906 L 236.269531 339.101562 C 235.003906 336.917969 232.503906 335.757812 230.015625 336.191406 L 211.898438 339.355469 L 228.402344 303.90625 C 228.59375 304.265625 228.777344 304.628906 228.960938 304.980469 C 230.511719 308.015625 232.445312 311.792969 236.179688 313.953125 C 239.902344 316.101562 244.136719 315.894531 247.535156 315.726562 C 249.375 315.636719 251.457031 315.53125 252.46875 315.898438 C 253.449219 316.257812 254.957031 317.664062 256.289062 318.902344 C 257.558594 320.082031 258.980469 321.410156 260.628906 322.527344 Z M 334.660156 327.457031 C 332.183594 326.949219 329.65625 328.039062 328.324219 330.1875 L 318.625 345.816406 L 307.328125 319.582031 C 307.59375 319.335938 307.855469 319.09375 308.109375 318.859375 C 309.425781 317.632812 310.921875 316.246094 311.871094 315.898438 C 312.890625 315.53125 314.988281 315.636719 316.839844 315.726562 C 320.414062 315.90625 324.472656 316.105469 328.167969 313.96875 C 331.933594 311.796875 333.871094 308 335.425781 304.949219 C 336.253906 303.328125 337.191406 301.492188 337.988281 300.820312 C 338.292969 300.566406 338.753906 300.324219 339.300781 300.089844 L 352.679688 331.148438 Z M 362.085938 234.242188 C 362.207031 234.933594 360.667969 237.304688 359.84375 238.574219 C 358.238281 241.046875 356.421875 243.847656 355.816406 247.285156 C 355.199219 250.769531 355.957031 254.070312 356.621094 256.984375 C 356.960938 258.460938 357.527344 260.941406 357.273438 261.628906 C 357.015625 262.34375 354.964844 263.890625 353.738281 264.816406 C 351.363281 266.609375 348.671875 268.644531 346.917969 271.675781 C 345.160156 274.714844 344.742188 278.070312 344.375 281.027344 C 344.183594 282.546875 343.867188 285.09375 343.382812 285.667969 C 342.90625 286.234375 340.460938 286.988281 339.003906 287.441406 C 336.152344 288.320312 332.917969 289.320312 330.226562 291.582031 C 327.554688 293.828125 326.027344 296.824219 324.679688 299.464844 C 323.976562 300.835938 322.808594 303.132812 322.136719 303.519531 C 321.476562 303.875 318.949219 303.75 317.4375 303.675781 C 314.449219 303.527344 311.0625 303.359375 307.757812 304.558594 C 304.503906 305.738281 302.054688 308.011719 299.894531 310.023438 C 298.683594 311.148438 296.851562 312.851562 296.046875 312.992188 C 295.242188 313.132812 292.941406 312.160156 291.414062 311.515625 C 288.703125 310.367188 285.628906 309.070312 282.171875 309.070312 C 282.167969 309.070312 282.164062 309.070312 282.160156 309.070312 C 278.640625 309.074219 275.515625 310.390625 272.757812 311.554688 C 271.363281 312.140625 269.027344 313.117188 268.292969 313.015625 C 267.527344 312.878906 265.640625 311.121094 264.515625 310.074219 C 262.34375 308.050781 259.882812 305.761719 256.609375 304.566406 C 254.425781 303.765625 252.210938 303.570312 250.101562 303.570312 C 249.011719 303.570312 247.953125 303.621094 246.941406 303.671875 C 245.417969 303.746094 242.863281 303.875 242.21875 303.503906 C 241.566406 303.128906 240.398438 300.84375 239.703125 299.480469 C 238.34375 296.828125 236.804688 293.820312 234.113281 291.5625 C 231.429688 289.316406 228.203125 288.324219 225.359375 287.453125 C 223.890625 287.003906 221.433594 286.25 220.945312 285.667969 C 220.472656 285.101562 220.15625 282.582031 219.96875 281.074219 C 219.597656 278.109375 219.179688 274.75 217.410156 271.6875 C 215.671875 268.679688 213 266.660156 210.640625 264.878906 C 209.40625 263.945312 207.34375 262.382812 207.074219 261.640625 C 206.839844 260.953125 207.398438 258.523438 207.734375 257.070312 C 208.40625 254.136719 209.171875 250.8125 208.550781 247.28125 C 207.929688 243.75 206.074219 240.890625 204.433594 238.363281 C 203.535156 236.976562 202.414062 235.25 202.257812 234.355469 C 202.136719 233.664062 203.671875 231.292969 204.5 230.023438 C 206.101562 227.554688 207.917969 224.753906 208.527344 221.316406 C 209.140625 217.832031 208.386719 214.53125 207.722656 211.617188 C 207.382812 210.136719 206.820312 207.664062 207.066406 206.96875 C 207.328125 206.253906 209.382812 204.703125 210.609375 203.777344 C 212.984375 201.984375 215.675781 199.953125 217.425781 196.925781 C 219.183594 193.886719 219.601562 190.53125 219.96875 187.574219 C 220.160156 186.054688 220.476562 183.507812 220.957031 182.933594 C 221.4375 182.363281 223.878906 181.609375 225.339844 181.160156 C 228.191406 180.277344 231.425781 179.277344 234.117188 177.015625 C 236.785156 174.769531 238.316406 171.773438 239.664062 169.132812 C 240.363281 167.761719 241.535156 165.464844 242.203125 165.078125 C 242.863281 164.722656 245.394531 164.847656 246.90625 164.921875 C 249.894531 165.070312 253.28125 165.238281 256.585938 164.042969 C 259.839844 162.863281 262.289062 160.585938 264.449219 158.578125 C 265.660156 157.449219 267.492188 155.746094 268.296875 155.605469 C 269.101562 155.476562 271.402344 156.4375 272.925781 157.082031 C 275.640625 158.230469 278.710938 159.527344 282.164062 159.527344 C 282.171875 159.527344 282.175781 159.527344 282.183594 159.527344 C 285.699219 159.523438 288.824219 158.207031 291.582031 157.046875 C 292.976562 156.460938 295.304688 155.476562 296.050781 155.585938 C 296.8125 155.71875 298.703125 157.476562 299.832031 158.527344 C 302 160.550781 304.460938 162.839844 307.734375 164.035156 C 311.039062 165.242188 314.417969 165.074219 317.402344 164.925781 C 318.925781 164.851562 321.476562 164.726562 322.125 165.097656 C 322.773438 165.472656 323.941406 167.753906 324.640625 169.121094 C 326 171.773438 327.539062 174.78125 330.230469 177.035156 C 332.914062 179.285156 336.136719 180.273438 338.980469 181.144531 C 340.449219 181.597656 342.90625 182.351562 343.398438 182.929688 C 343.871094 183.496094 344.183594 186.019531 344.375 187.523438 C 344.746094 190.488281 345.164062 193.847656 346.933594 196.910156 C 348.667969 199.917969 351.339844 201.9375 353.699219 203.722656 C 355.015625 204.714844 357 206.214844 357.269531 206.960938 C 357.503906 207.648438 356.945312 210.078125 356.609375 211.527344 C 355.933594 214.460938 355.167969 217.789062 355.792969 221.320312 C 356.414062 224.847656 358.269531 227.710938 359.90625 230.234375 C 360.808594 231.621094 361.925781 233.347656 362.085938 234.242188 Z M 282.171875 169.691406 C 246.546875 169.691406 217.566406 198.675781 217.566406 234.300781 C 217.566406 269.921875 246.546875 298.90625 282.171875 298.90625 C 317.796875 298.90625 346.777344 269.921875 346.777344 234.296875 C 346.777344 198.675781 317.796875 169.691406 282.171875 169.691406 Z M 282.171875 286.839844 C 253.199219 286.839844 229.632812 263.269531 229.632812 234.300781 C 229.632812 205.328125 253.199219 181.757812 282.171875 181.757812 C 311.140625 181.757812 334.710938 205.328125 334.710938 234.300781 C 334.710938 263.269531 311.140625 286.839844 282.171875 286.839844 Z M 296.277344 214.0625 L 287.753906 193.207031 C 286.828125 190.941406 284.621094 189.457031 282.171875 189.457031 C 279.722656 189.457031 277.511719 190.941406 276.585938 193.207031 L 268.066406 214.0625 L 245.597656 215.722656 C 243.152344 215.902344 241.0625 217.546875 240.304688 219.875 C 239.546875 222.207031 240.273438 224.761719 242.144531 226.347656 L 259.34375 240.894531 L 253.980469 262.777344 C 253.398438 265.15625 254.3125 267.652344 256.296875 269.09375 C 258.277344 270.535156 260.9375 270.632812 263.019531 269.339844 L 282.171875 257.480469 L 301.324219 269.339844 C 302.300781 269.945312 303.402344 270.246094 304.5 270.246094 C 305.75 270.246094 306.992188 269.859375 308.046875 269.09375 C 310.03125 267.652344 310.945312 265.15625 310.363281 262.777344 L 304.996094 240.894531 L 322.199219 226.347656 C 324.070312 224.765625 324.796875 222.207031 324.039062 219.875 C 323.28125 217.546875 321.191406 215.902344 318.746094 215.722656 Z M 294.351562 234.097656 C 292.601562 235.574219 291.84375 237.914062 292.386719 240.140625 L 295.125 251.308594 L 285.347656 245.253906 C 283.402344 244.046875 280.941406 244.046875 278.992188 245.253906 L 269.214844 251.308594 L 271.953125 240.140625 C 272.5 237.914062 271.738281 235.574219 269.992188 234.097656 L 261.210938 226.667969 L 272.679688 225.820312 C 274.960938 225.652344 276.953125 224.203125 277.820312 222.085938 L 282.167969 211.441406 L 286.519531 222.085938 C 287.386719 224.207031 289.378906 225.652344 291.660156 225.820312 L 303.128906 226.667969 Z M 294.351562 234.097656 " fill-opacity="1" fill-rule="nonzero"/></g></svg>