<svg xmlns="http://www.w3.org/2000/svg" xmlns:xlink="http://www.w3.org/1999/xlink" width="500" zoomAndPan="magnify" viewBox="0 0 375 374.999991" height="500" preserveAspectRatio="xMidYMid meet" version="1.0"><path fill="#ffeea8" d="M 349.125 153.617188 L 255.617188 60.132812 L 162.109375 153.640625 L 255.617188 247.148438 Z M 188.023438 210.6875 L 94.515625 117.179688 L 1.007812 210.6875 L 94.515625 304.195312 Z M 94.789062 116.4375 L 189.039062 210.6875 L 94.53125 305.195312 C 63.023438 273.710938 31.519531 242.207031 0.0234375 210.6875 C 31.539062 179.191406 63.039062 147.691406 94.53125 116.1875 Z M 246.820312 270.292969 L 202.171875 225.625 L 157.535156 270.269531 L 202.171875 314.910156 Z M 202.414062 224.882812 L 247.820312 270.292969 L 202.171875 315.957031 L 156.511719 270.292969 L 202.171875 224.625 Z M 142.929688 290.921875 C 142.929688 290.007812 143.019531 289.101562 143.199219 288.207031 C 143.375 287.308594 143.640625 286.441406 143.988281 285.597656 C 144.339844 284.753906 144.769531 283.953125 145.277344 283.191406 C 145.785156 282.433594 146.359375 281.730469 147.007812 281.085938 C 147.652344 280.4375 148.355469 279.863281 149.113281 279.355469 C 149.875 278.847656 150.675781 278.421875 151.519531 278.070312 C 152.363281 277.722656 153.234375 277.457031 154.128906 277.28125 C 155.027344 277.101562 155.929688 277.015625 156.84375 277.015625 C 155.929688 277.015625 155.027344 276.925781 154.128906 276.75 C 153.234375 276.570312 152.363281 276.308594 151.519531 275.957031 C 150.675781 275.609375 149.875 275.179688 149.113281 274.675781 C 148.355469 274.167969 147.652344 273.589844 147.007812 272.945312 C 146.359375 272.300781 145.785156 271.597656 145.277344 270.835938 C 144.769531 270.078125 144.339844 269.277344 143.988281 268.433594 C 143.640625 267.589844 143.375 266.71875 143.199219 265.824219 C 143.019531 264.925781 142.929688 264.023438 142.929688 263.109375 C 142.929688 264.019531 142.835938 264.921875 142.65625 265.8125 C 142.476562 266.703125 142.214844 267.570312 141.863281 268.410156 C 141.515625 269.25 141.085938 270.050781 140.578125 270.804688 C 140.074219 271.5625 139.5 272.261719 138.855469 272.90625 C 138.210938 273.546875 137.511719 274.121094 136.753906 274.628906 C 136 275.132812 135.199219 275.5625 134.359375 275.910156 C 133.519531 276.257812 132.652344 276.523438 131.761719 276.703125 C 130.867188 276.882812 129.96875 276.972656 129.058594 276.972656 C 129.972656 276.976562 130.875 277.066406 131.769531 277.25 C 132.664062 277.429688 133.535156 277.695312 134.378906 278.046875 C 135.222656 278.398438 136.023438 278.828125 136.78125 279.335938 C 137.539062 279.847656 138.238281 280.425781 138.882812 281.074219 C 139.527344 281.71875 140.101562 282.425781 140.609375 283.183594 C 141.113281 283.945312 141.539062 284.75 141.886719 285.59375 C 142.234375 286.4375 142.496094 287.308594 142.671875 288.207031 C 142.847656 289.101562 142.933594 290.007812 142.929688 290.921875 Z M 147.886719 160.621094 C 147.886719 159.707031 147.976562 158.804688 148.15625 157.90625 C 148.332031 157.011719 148.597656 156.140625 148.945312 155.296875 C 149.296875 154.453125 149.726562 153.652344 150.234375 152.894531 C 150.742188 152.132812 151.316406 151.429688 151.964844 150.785156 C 152.609375 150.140625 153.3125 149.5625 154.070312 149.054688 C 154.832031 148.550781 155.632812 148.121094 156.476562 147.773438 C 157.320312 147.421875 158.191406 147.160156 159.085938 146.980469 C 159.984375 146.804688 160.886719 146.714844 161.800781 146.714844 C 160.886719 146.714844 159.984375 146.625 159.089844 146.449219 C 158.191406 146.269531 157.324219 146.007812 156.480469 145.65625 C 155.636719 145.308594 154.832031 144.878906 154.074219 144.371094 C 153.316406 143.867188 152.613281 143.289062 151.964844 142.644531 C 151.320312 142 150.742188 141.296875 150.234375 140.535156 C 149.726562 139.777344 149.300781 138.976562 148.949219 138.132812 C 148.597656 137.289062 148.335938 136.417969 148.15625 135.523438 C 147.976562 134.628906 147.886719 133.722656 147.886719 132.8125 C 147.886719 133.722656 147.800781 134.628906 147.621094 135.523438 C 147.441406 136.417969 147.179688 137.289062 146.828125 138.132812 C 146.480469 138.976562 146.050781 139.777344 145.542969 140.535156 C 145.039062 141.296875 144.460938 141.996094 143.816406 142.644531 C 143.167969 143.289062 142.46875 143.863281 141.707031 144.371094 C 140.949219 144.878906 140.148438 145.308594 139.304688 145.65625 C 138.460938 146.007812 137.589844 146.269531 136.695312 146.449219 C 135.800781 146.625 134.894531 146.714844 133.984375 146.714844 C 134.894531 146.714844 135.796875 146.804688 136.691406 146.980469 C 137.585938 147.160156 138.453125 147.421875 139.292969 147.769531 C 140.136719 148.117188 140.9375 148.546875 141.695312 149.050781 C 142.453125 149.554688 143.15625 150.132812 143.800781 150.773438 C 144.445312 151.417969 145.023438 152.117188 145.53125 152.875 C 146.039062 153.632812 146.46875 154.429688 146.816406 155.273438 C 147.167969 156.113281 147.433594 156.980469 147.613281 157.875 C 147.792969 158.765625 147.886719 159.667969 147.886719 160.582031 Z M 361.109375 156.1875 C 361.109375 155.273438 361.199219 154.371094 361.378906 153.476562 C 361.554688 152.578125 361.820312 151.710938 362.167969 150.867188 C 362.519531 150.023438 362.945312 149.222656 363.453125 148.460938 C 363.960938 147.703125 364.539062 147 365.183594 146.355469 C 365.828125 145.710938 366.53125 145.132812 367.289062 144.625 C 368.050781 144.117188 368.851562 143.691406 369.695312 143.339844 C 370.539062 142.992188 371.40625 142.726562 372.304688 142.550781 C 373.199219 142.371094 374.101562 142.28125 375.015625 142.28125 C 374.101562 142.28125 373.199219 142.191406 372.300781 142.015625 C 371.40625 141.835938 370.535156 141.574219 369.691406 141.222656 C 368.847656 140.875 368.046875 140.445312 367.289062 139.9375 C 366.527344 139.429688 365.828125 138.851562 365.179688 138.207031 C 364.535156 137.5625 363.957031 136.859375 363.453125 136.097656 C 362.945312 135.339844 362.515625 134.535156 362.167969 133.691406 C 361.816406 132.847656 361.554688 131.980469 361.375 131.082031 C 361.199219 130.1875 361.109375 129.28125 361.109375 128.367188 C 361.109375 129.28125 361.023438 130.1875 360.84375 131.082031 C 360.667969 131.980469 360.402344 132.847656 360.054688 133.691406 C 359.707031 134.535156 359.277344 135.339844 358.769531 136.097656 C 358.261719 136.859375 357.6875 137.5625 357.039062 138.207031 C 356.394531 138.851562 355.691406 139.429688 354.933594 139.9375 C 354.175781 140.445312 353.371094 140.875 352.527344 141.222656 C 351.683594 141.574219 350.816406 141.835938 349.917969 142.015625 C 349.023438 142.191406 348.117188 142.28125 347.207031 142.28125 C 348.117188 142.28125 349.019531 142.371094 349.914062 142.546875 C 350.808594 142.726562 351.675781 142.988281 352.515625 143.335938 C 353.359375 143.683594 354.160156 144.113281 354.917969 144.617188 C 355.675781 145.121094 356.378906 145.699219 357.023438 146.339844 C 357.667969 146.984375 358.246094 147.683594 358.753906 148.441406 C 359.261719 149.199219 359.691406 149.996094 360.039062 150.839844 C 360.390625 151.679688 360.65625 152.546875 360.835938 153.441406 C 361.015625 154.332031 361.109375 155.234375 361.109375 156.148438 Z M 255.890625 59.367188 L 350.140625 153.617188 C 318.636719 185.117188 287.128906 216.621094 255.617188 248.125 C 224.125 216.625 192.628906 185.125 161.132812 153.617188 L 255.617188 59.109375 Z M 255.890625 59.367188 " fill-opacity="1" fill-rule="nonzero"/></svg>