<svg xmlns="http://www.w3.org/2000/svg" xmlns:xlink="http://www.w3.org/1999/xlink" width="500" zoomAndPan="magnify" viewBox="0 0 375 374.999991" height="500" preserveAspectRatio="xMidYMid meet" version="1.0"><defs><filter x="0%" y="0%" width="100%" height="100%" id="f50b12ea1a"><feColorMatrix values="0 0 0 0 1 0 0 0 0 1 0 0 0 0 1 0 0 0 1 0" color-interpolation-filters="sRGB"/></filter><mask id="4b8bfe6fbe"><g filter="url(#f50b12ea1a)"><rect x="-37.5" width="450" fill="#000000" y="-37.499999" height="449.999989" fill-opacity="0.8"/></g></mask><clipPath id="83736230db"><path d="M 179 67 L 299 67 L 299 81 L 179 81 Z M 179 67 " clip-rule="nonzero"/></clipPath><clipPath id="fbc492f3b8"><path d="M 7.746094 0.355469 L 320.46875 31.28125 L 313.238281 104.425781 L 0.511719 73.5 Z M 7.746094 0.355469 " clip-rule="nonzero"/></clipPath><clipPath id="97efef8542"><path d="M 7.746094 0.355469 L 320.46875 31.28125 L 313.238281 104.425781 L 0.511719 73.5 Z M 7.746094 0.355469 " clip-rule="nonzero"/></clipPath><clipPath id="cd44945a3c"><path d="M 156 72 L 176 72 L 176 85 L 156 85 Z M 156 72 " clip-rule="nonzero"/></clipPath><clipPath id="a5963dcd05"><path d="M 7.746094 0.355469 L 320.46875 31.28125 L 313.238281 104.425781 L 0.511719 73.5 Z M 7.746094 0.355469 " clip-rule="nonzero"/></clipPath><clipPath id="6d0ca80d3a"><path d="M 7.746094 0.355469 L 320.46875 31.28125 L 313.238281 104.425781 L 0.511719 73.5 Z M 7.746094 0.355469 " clip-rule="nonzero"/></clipPath><clipPath id="0c062baa9a"><path d="M 84 56 L 120 56 L 120 83 L 84 83 Z M 84 56 " clip-rule="nonzero"/></clipPath><clipPath id="7078f7203e"><path d="M 7.746094 0.355469 L 320.46875 31.28125 L 313.238281 104.425781 L 0.511719 73.5 Z M 7.746094 0.355469 " clip-rule="nonzero"/></clipPath><clipPath id="19b6ed5443"><path d="M 7.746094 0.355469 L 320.46875 31.28125 L 313.238281 104.425781 L 0.511719 73.5 Z M 7.746094 0.355469 " clip-rule="nonzero"/></clipPath><clipPath id="3697950d82"><path d="M 24 8 L 62 8 L 62 37 L 24 37 Z M 24 8 " clip-rule="nonzero"/></clipPath><clipPath id="561e45b313"><path d="M 7.746094 0.355469 L 320.46875 31.28125 L 313.238281 104.425781 L 0.511719 73.5 Z M 7.746094 0.355469 " clip-rule="nonzero"/></clipPath><clipPath id="5b14713036"><path d="M 7.746094 0.355469 L 320.46875 31.28125 L 313.238281 104.425781 L 0.511719 73.5 Z M 7.746094 0.355469 " clip-rule="nonzero"/></clipPath><clipPath id="0478c8deaa"><path d="M 7 1 L 317 1 L 317 87 L 7 87 Z M 7 1 " clip-rule="nonzero"/></clipPath><clipPath id="706715ba84"><path d="M 7.746094 0.355469 L 320.46875 31.28125 L 313.238281 104.425781 L 0.511719 73.5 Z M 7.746094 0.355469 " clip-rule="nonzero"/></clipPath><clipPath id="6754bf7c31"><path d="M 7.746094 0.355469 L 320.46875 31.28125 L 313.238281 104.425781 L 0.511719 73.5 Z M 7.746094 0.355469 " clip-rule="nonzero"/></clipPath><clipPath id="79c3aa6c48"><rect x="0" width="321" y="0" height="106"/></clipPath></defs><g mask="url(#4b8bfe6fbe)"><g transform="matrix(1, 0, 0, 1, 27, 135)"><g clip-path="url(#79c3aa6c48)"><g clip-path="url(#83736230db)"><g clip-path="url(#fbc492f3b8)"><g clip-path="url(#97efef8542)"><path fill="#033792" d="M 195.222656 80.019531 L 195.042969 80.003906 C 189.804688 79.511719 184.617188 78.691406 179.484375 77.546875 L 180.613281 72.558594 C 185.488281 73.625 190.40625 74.398438 195.371094 74.886719 L 195.597656 74.90625 L 195.347656 77.433594 L 195.402344 79.988281 Z M 205.628906 80.71875 L 205.851562 75.640625 C 210.648438 75.835938 215.816406 75.886719 221.132812 75.75 L 221.214844 80.855469 C 215.796875 80.984375 210.527344 80.921875 205.628906 80.71875 Z M 231.78125 80.472656 L 231.523438 75.351562 C 236.414062 75.09375 241.601562 74.714844 246.917969 74.324219 L 247.375 79.46875 C 242.035156 79.855469 236.902344 80.242188 231.78125 80.472656 Z M 257.765625 78.300781 L 257.203125 73.148438 C 262.152344 72.59375 267.3125 71.957031 272.507812 71.222656 L 273.210938 76.234375 C 267.980469 77.070312 262.789062 77.753906 257.789062 78.304688 Z M 283.601562 74.792969 L 282.796875 69.765625 C 287.972656 68.980469 292.992188 68.226562 298.019531 67.167969 L 298.953125 72.15625 C 293.890625 73.082031 288.730469 73.972656 283.601562 74.792969 Z M 283.601562 74.792969 " fill-opacity="1" fill-rule="nonzero"/></g></g></g><g clip-path="url(#cd44945a3c)"><g clip-path="url(#a5963dcd05)"><g clip-path="url(#6d0ca80d3a)"><path fill="#033792" d="M 158.085938 84.632812 L 156.808594 79.738281 C 162.5 78.285156 167.765625 75.902344 172.609375 72.582031 L 175.480469 76.769531 C 170.148438 80.421875 164.351562 83.042969 158.085938 84.632812 Z M 158.085938 84.632812 " fill-opacity="1" fill-rule="nonzero"/></g></g></g><g clip-path="url(#0c062baa9a)"><g clip-path="url(#7078f7203e)"><g clip-path="url(#19b6ed5443)"><path fill="#033792" d="M 117.898438 82.1875 C 113.199219 80.324219 108.707031 78.046875 104.429688 75.347656 L 107.097656 71.050781 C 111.121094 73.554688 115.335938 75.671875 119.75 77.398438 Z M 96.332031 69.859375 C 92.789062 67.265625 89.011719 64.214844 84.765625 60.53125 L 88.097656 56.707031 C 92.230469 60.277344 95.84375 63.183594 99.359375 65.773438 Z M 96.332031 69.859375 " fill-opacity="1" fill-rule="nonzero"/></g></g></g><g clip-path="url(#3697950d82)"><g clip-path="url(#561e45b313)"><g clip-path="url(#5b14713036)"><path fill="#033792" d="M 58.261719 36.730469 C 53.894531 32.984375 49.929688 29.738281 46.113281 26.835938 L 49.183594 22.882812 C 53.070312 25.816406 57.125 29.148438 61.566406 32.976562 Z M 37.46875 20.703125 C 33.167969 17.785156 28.703125 15.132812 24.082031 12.753906 L 26.390625 8.242188 C 31.179688 10.683594 35.8125 13.394531 40.292969 16.371094 Z M 37.46875 20.703125 " fill-opacity="1" fill-rule="nonzero"/></g></g></g><g clip-path="url(#0478c8deaa)"><g clip-path="url(#706715ba84)"><g clip-path="url(#6754bf7c31)"><path fill="#033792" d="M 134.976562 86.347656 C 132.441406 86.101562 129.929688 85.691406 127.449219 85.121094 L 128.578125 80.132812 C 133.765625 81.273438 139.015625 81.742188 144.320312 81.535156 L 144.476562 86.648438 C 141.304688 86.769531 138.136719 86.667969 134.976562 86.347656 Z M 169.289062 74.445312 C 166.765625 73.488281 164.332031 72.34375 161.980469 71.023438 C 159.445312 69.59375 157.058594 67.945312 154.820312 66.082031 L 158.0625 62.199219 C 160.019531 63.867188 162.105469 65.355469 164.324219 66.667969 C 166.464844 67.90625 168.683594 68.976562 170.988281 69.875 Z M 185.773438 67.308594 L 181.804688 64.136719 C 183.601562 61.921875 185.105469 59.519531 186.3125 56.9375 C 187.433594 54.535156 188.207031 52.03125 188.636719 49.417969 L 193.65625 50.21875 C 193.140625 53.359375 192.207031 56.367188 190.851562 59.246094 C 189.460938 62.160156 187.746094 64.871094 185.714844 67.378906 Z M 77.605469 54.0625 L 72.179688 49.117188 L 66.332031 43.796875 L 69.671875 40.203125 L 75.515625 45.546875 L 80.941406 50.46875 Z M 146.875 56.222656 C 145.542969 53.257812 145 50.152344 145.246094 46.910156 C 145.523438 43.796875 146.429688 40.878906 147.972656 38.15625 L 152.359375 40.730469 C 151.164062 42.800781 150.457031 45.027344 150.246094 47.40625 C 150.066406 49.808594 150.46875 52.105469 151.449219 54.304688 Z M 309.265625 70.191406 L 308.277344 65.226562 C 312.675781 64.335938 315.332031 63.730469 315.75 63.644531 L 316.867188 68.597656 C 316.398438 68.679688 313.6875 69.277344 309.265625 70.191406 Z M 187.511719 38.371094 C 186.535156 35.945312 185.09375 33.832031 183.195312 32.03125 C 181.808594 30.683594 180.210938 29.675781 178.394531 29.007812 L 180.164062 24.261719 C 182.621094 25.175781 184.785156 26.546875 186.667969 28.371094 C 189.082031 30.707031 190.910156 33.4375 192.152344 36.5625 Z M 158.984375 33 L 156.03125 29.089844 C 158.410156 27.28125 160.992188 25.835938 163.777344 24.757812 C 166.09375 23.871094 168.488281 23.300781 170.957031 23.046875 L 171.414062 28.191406 C 169.40625 28.40625 167.457031 28.875 165.566406 29.597656 C 163.230469 30.476562 161.058594 31.65625 159.046875 33.136719 Z M 14.585938 8.527344 C 12.132812 7.542969 9.671875 6.664062 7.1875 5.984375 L 8.773438 1.042969 C 11.242188 1.847656 13.851562 2.792969 16.378906 3.785156 Z M 14.585938 8.527344 " fill-opacity="1" fill-rule="nonzero"/></g></g></g></g></g></g></svg>