<svg xmlns="http://www.w3.org/2000/svg" xmlns:xlink="http://www.w3.org/1999/xlink" width="500" zoomAndPan="magnify" viewBox="0 0 375 374.999991" height="500" preserveAspectRatio="xMidYMid meet" version="1.0"><path fill="#ffffff" d="M 185.140625 306.453125 C 176.199219 306.453125 167.03125 305.480469 158.605469 302.824219 C 152.613281 300.933594 148.359375 294.496094 148.925781 288.167969 C 149.046875 286.777344 149.222656 285.3125 149.40625 283.769531 C 150.769531 272.378906 152.460938 258.214844 138.714844 245.9375 C 137.589844 244.929688 136.4375 243.910156 135.273438 242.886719 C 111.425781 221.769531 78.769531 192.847656 99.992188 135.917969 C 109.527344 110.34375 125.546875 92.402344 146.316406 84.039062 C 174.488281 72.695312 205.28125 71.265625 228.761719 80.210938 C 232.605469 81.238281 267.699219 91.546875 281.929688 128.539062 C 301.457031 179.3125 284.324219 202.804688 270.554688 221.6875 L 269.484375 223.15625 C 261.113281 234.671875 255.125 238.945312 250.328125 242.371094 C 245.171875 246.0625 241.765625 248.496094 237.140625 260.042969 C 233.246094 269.785156 233.214844 277.546875 233.191406 283.78125 C 233.1875 286.011719 233.179688 288.113281 232.996094 290.082031 C 232.503906 295.421875 228.242188 300.382812 223.066406 301.613281 C 214.046875 303.78125 199.910156 306.453125 185.140625 306.453125 Z M 194.746094 83.539062 C 180.148438 83.539062 164.589844 86.570312 149.75 92.546875 C 131.445312 99.925781 117.210938 116.027344 108.609375 139.117188 C 89.582031 190.148438 117.097656 214.507812 141.371094 235.996094 C 142.542969 237.039062 143.707031 238.0625 144.847656 239.082031 C 162.164062 254.539062 159.984375 272.777344 158.539062 284.847656 C 158.363281 286.324219 158.191406 287.722656 158.078125 288.980469 C 157.894531 291 159.496094 293.472656 161.371094 294.0625 C 181.605469 300.429688 207.378906 295.9375 220.941406 292.691406 C 222.257812 292.378906 223.734375 290.640625 223.863281 289.246094 C 224.007812 287.679688 224.015625 285.855469 224.023438 283.753906 C 224.046875 277.101562 224.085938 268.003906 228.632812 256.636719 C 234.25 242.585938 239.230469 239.027344 245 234.902344 C 249.488281 231.695312 254.574219 228.0625 262.066406 217.753906 L 263.140625 216.277344 C 276.882812 197.425781 291.097656 177.941406 273.363281 131.839844 C 260.316406 97.914062 226.589844 89.128906 226.25 89.042969 C 226.066406 88.996094 225.890625 88.945312 225.714844 88.875 C 216.449219 85.308594 205.871094 83.539062 194.746094 83.539062 Z M 194.746094 83.539062 " fill-opacity="1" fill-rule="nonzero"/><path fill="#ffffff" d="M 150.871094 295.746094 C 151.023438 296.179688 151.152344 296.625 151.257812 297.078125 C 151.296875 297.246094 151.335938 297.414062 151.367188 297.582031 C 151.382812 297.65625 151.496094 298.371094 151.441406 297.980469 C 151.390625 297.628906 151.464844 298.195312 151.464844 298.210938 C 151.488281 298.4375 151.511719 298.675781 151.527344 298.90625 C 151.566406 299.433594 151.589844 299.953125 151.605469 300.480469 C 151.664062 302.234375 151.6875 303.972656 151.925781 305.710938 C 152.355469 308.894531 153.507812 312.199219 156.082031 314.296875 C 159.296875 316.921875 163.359375 316.84375 167.300781 316.964844 C 171.171875 317.089844 175.054688 317.1875 178.925781 317.257812 C 186.679688 317.394531 194.429688 317.425781 202.183594 317.296875 C 206.054688 317.234375 209.9375 317.136719 213.808594 316.988281 C 217.160156 316.867188 220.695312 316.84375 223.855469 315.589844 C 227.859375 313.996094 230.636719 310.753906 231.707031 306.574219 C 232.8125 302.28125 232.007812 297.878906 231.132812 293.625 C 230.773438 291.855469 228.585938 290.671875 226.894531 291.222656 C 225.019531 291.828125 224.101562 293.5625 224.492188 295.460938 C 224.660156 296.296875 224.835938 297.128906 224.980469 297.972656 C 225.042969 298.332031 225.105469 298.691406 225.164062 299.050781 C 225.28125 299.761719 225.210938 299.378906 225.195312 299.21875 C 225.226562 299.457031 225.25 299.703125 225.273438 299.945312 C 225.355469 300.789062 225.394531 301.636719 225.371094 302.488281 C 225.363281 302.878906 225.316406 303.261719 225.296875 303.652344 C 225.28125 304.046875 225.316406 303.511719 225.324219 303.460938 C 225.289062 303.652344 225.265625 303.847656 225.226562 304.039062 C 225.097656 304.714844 224.898438 305.371094 224.667969 306.015625 C 224.644531 306.078125 224.445312 306.503906 224.621094 306.144531 C 224.8125 305.753906 224.53125 306.296875 224.484375 306.390625 C 224.308594 306.734375 224.070312 307.039062 223.894531 307.386719 C 223.726562 307.714844 223.964844 307.324219 224.007812 307.269531 C 223.917969 307.386719 223.824219 307.492188 223.726562 307.597656 C 223.503906 307.851562 223.257812 308.082031 223.015625 308.3125 C 222.898438 308.425781 222.515625 308.632812 223.015625 308.320312 C 222.890625 308.394531 222.769531 308.488281 222.648438 308.5625 C 222.3125 308.777344 221.957031 308.9375 221.613281 309.121094 C 221.269531 309.304688 221.707031 309.085938 221.757812 309.0625 C 221.566406 309.121094 221.390625 309.199219 221.199219 309.261719 C 220.917969 309.351562 220.625 309.4375 220.34375 309.503906 C 220.007812 309.589844 219.664062 309.664062 219.3125 309.726562 C 219.164062 309.757812 219.011719 309.78125 218.859375 309.804688 C 217.910156 309.964844 219.273438 309.78125 218.722656 309.820312 C 217.214844 309.925781 215.714844 310.03125 214.199219 310.085938 C 210.578125 310.222656 206.957031 310.324219 203.339844 310.386719 C 196.222656 310.515625 189.105469 310.515625 181.988281 310.414062 C 178.429688 310.363281 174.871094 310.292969 171.3125 310.195312 C 169.464844 310.140625 167.628906 310.085938 165.785156 310.027344 C 165.035156 310.003906 164.285156 309.988281 163.535156 309.933594 C 163.320312 309.917969 163.097656 309.902344 162.882812 309.886719 C 162.847656 309.886719 162.3125 309.820312 162.691406 309.871094 C 163.074219 309.925781 162.546875 309.84375 162.507812 309.835938 C 162.25 309.78125 161.988281 309.726562 161.730469 309.652344 C 161.574219 309.605469 161.421875 309.558594 161.269531 309.511719 C 161.730469 309.65625 161.292969 309.527344 161.070312 309.40625 C 160.949219 309.335938 160.824219 309.261719 160.703125 309.191406 C 160.160156 308.894531 160.917969 309.445312 160.664062 309.167969 C 160.464844 308.953125 160.238281 308.71875 160.023438 308.519531 C 160.472656 308.929688 160.214844 308.792969 160.082031 308.59375 C 159.984375 308.449219 159.890625 308.304688 159.800781 308.152344 C 159.617188 307.84375 159.464844 307.523438 159.3125 307.203125 C 159.632812 307.875 159.257812 307.003906 159.179688 306.75 C 158.957031 306.046875 158.835938 305.328125 158.699219 304.597656 C 158.835938 305.347656 158.691406 304.460938 158.667969 304.15625 C 158.628906 303.6875 158.605469 303.222656 158.589844 302.753906 C 158.554688 301.8125 158.546875 300.878906 158.5 299.9375 C 158.40625 297.902344 158.199219 295.828125 157.542969 293.894531 C 156.960938 292.195312 155.148438 290.894531 153.304688 291.488281 C 151.582031 292.046875 150.242188 293.914062 150.871094 295.746094 Z M 150.871094 295.746094 " fill-opacity="1" fill-rule="nonzero"/><path fill="#ffffff" d="M 153.25 310.003906 C 153.371094 310.308594 153.480469 310.621094 153.554688 310.945312 C 153.585938 311.058594 153.679688 311.648438 153.617188 311.171875 C 153.5625 310.730469 153.609375 311.203125 153.617188 311.273438 C 153.625 312 153.585938 312.703125 153.523438 313.421875 C 153.480469 313.953125 153.617188 312.855469 153.53125 313.386719 C 153.507812 313.53125 153.488281 313.675781 153.464844 313.820312 C 153.402344 314.210938 153.339844 314.601562 153.28125 314.992188 C 153.140625 315.925781 152.996094 316.859375 152.941406 317.800781 C 152.738281 321.152344 153.992188 324.289062 156.664062 326.347656 C 159.082031 328.21875 162.105469 328.835938 165.074219 329.136719 C 168.265625 329.457031 171.515625 329.394531 174.722656 329.472656 C 182.015625 329.632812 189.316406 329.710938 196.613281 329.402344 C 200.277344 329.25 203.941406 329.003906 207.59375 328.621094 C 211.121094 328.253906 214.726562 327.910156 218.1875 327.085938 C 221.90625 326.195312 225.515625 324.351562 227.589844 321.015625 C 229.496094 317.945312 229.949219 313.570312 227.722656 310.53125 C 226.65625 309.085938 224.683594 308.21875 223.007812 309.296875 C 221.566406 310.222656 220.632812 312.453125 221.773438 314.011719 C 221.929688 314.21875 222.058594 314.441406 222.195312 314.65625 C 222.585938 315.269531 222.132812 314.511719 222.15625 314.519531 C 222.203125 314.539062 222.25 314.824219 222.265625 314.878906 C 222.273438 314.914062 222.378906 315.214844 222.347656 315.246094 C 222.304688 315.296875 222.363281 314.519531 222.3125 314.945312 C 222.273438 315.261719 222.3125 315.636719 222.304688 315.957031 C 222.296875 316.363281 222.3125 315.679688 222.339844 315.679688 C 222.324219 315.679688 222.265625 316.035156 222.257812 316.0625 C 222.1875 316.363281 222.066406 316.644531 221.988281 316.945312 C 221.996094 316.90625 222.265625 316.394531 222.082031 316.730469 C 222.019531 316.84375 221.964844 316.96875 221.90625 317.089844 C 221.738281 317.402344 221.53125 317.6875 221.347656 317.992188 C 221.644531 317.503906 221.4375 317.871094 221.214844 318.113281 C 221.03125 318.304688 220.839844 318.480469 220.648438 318.65625 C 220.535156 318.757812 220.128906 318.980469 220.621094 318.679688 C 220.488281 318.757812 220.367188 318.855469 220.238281 318.933594 C 219.9375 319.125 219.625 319.300781 219.3125 319.46875 C 219.171875 319.539062 219.027344 319.597656 218.898438 319.667969 C 218.4375 319.929688 219.371094 319.507812 218.875 319.683594 C 218.582031 319.785156 218.300781 319.898438 218 319.996094 C 217.3125 320.226562 216.609375 320.402344 215.898438 320.5625 C 214.441406 320.886719 212.972656 321.09375 211.496094 321.296875 C 211.933594 321.238281 211.054688 321.359375 210.929688 321.375 C 210.5625 321.421875 210.1875 321.46875 209.820312 321.511719 C 208.957031 321.613281 208.089844 321.710938 207.226562 321.796875 C 203.882812 322.132812 200.53125 322.363281 197.171875 322.515625 C 190.503906 322.804688 183.832031 322.78125 177.15625 322.652344 C 173.898438 322.59375 170.628906 322.523438 167.371094 322.414062 C 166.816406 322.402344 166.265625 322.371094 165.714844 322.324219 C 165.457031 322.300781 165.203125 322.277344 164.941406 322.253906 C 164.890625 322.246094 164.597656 322.179688 164.554688 322.210938 C 164.707031 322.09375 165.242188 322.316406 164.566406 322.203125 C 164.015625 322.109375 163.472656 321.996094 162.9375 321.855469 C 162.691406 321.789062 162.457031 321.71875 162.21875 321.644531 C 162.105469 321.605469 161.980469 321.542969 161.867188 321.519531 C 161.429688 321.421875 162.394531 321.796875 162.011719 321.589844 C 161.730469 321.4375 161.4375 321.3125 161.164062 321.152344 C 161.0625 321.09375 160.964844 321.023438 160.863281 320.96875 C 160.421875 320.71875 160.902344 321.09375 160.996094 321.09375 C 160.796875 321.078125 160.472656 320.601562 160.320312 320.457031 C 160.25 320.386719 160.015625 320.074219 160.296875 320.449219 C 160.597656 320.847656 160.273438 320.402344 160.230469 320.320312 C 160.175781 320.210938 160.113281 320.113281 160.054688 320.003906 C 159.679688 319.402344 160.128906 320.417969 160.039062 319.988281 C 159.96875 319.675781 159.871094 319.355469 159.792969 319.03125 C 159.808594 319.085938 159.824219 319.644531 159.832031 319.253906 C 159.832031 319.019531 159.800781 318.78125 159.800781 318.550781 C 159.800781 318.214844 159.816406 317.878906 159.847656 317.546875 C 159.863281 317.402344 159.875 317.257812 159.882812 317.113281 C 159.945312 316.429688 159.824219 317.433594 159.890625 317.003906 C 159.945312 316.660156 160 316.324219 160.054688 315.980469 C 160.199219 315.046875 160.34375 314.105469 160.4375 313.164062 C 160.605469 311.511719 160.496094 309.742188 159.875 308.195312 C 159.210938 306.527344 157.542969 305.171875 155.636719 305.792969 C 154.046875 306.289062 152.539062 308.210938 153.25 310.003906 Z M 153.25 310.003906 " fill-opacity="1" fill-rule="nonzero"/><path fill="#ffffff" d="M 158.421875 326.304688 C 158.554688 326.96875 158.46875 326.433594 158.453125 326.296875 C 158.484375 326.496094 158.492188 326.703125 158.507812 326.90625 C 158.53125 327.269531 158.53125 327.628906 158.523438 327.980469 C 158.515625 328.339844 158.492188 328.699219 158.460938 329.058594 C 158.445312 329.265625 158.414062 329.472656 158.398438 329.679688 C 158.429688 329.335938 158.445312 329.371094 158.398438 329.695312 C 158.125 331.5 157.78125 333.28125 157.582031 335.097656 C 157.183594 338.824219 158.148438 342.34375 160.6875 345.144531 C 163.382812 348.121094 167.214844 349.683594 171.125 350.144531 C 174.746094 350.570312 178.449219 350.042969 182.070312 349.746094 C 189.691406 349.125 197.308594 348.496094 204.929688 347.878906 C 211.359375 347.347656 218.929688 347.433594 223.878906 342.613281 C 229.449219 337.1875 228.257812 328.796875 226.632812 321.980469 C 226.222656 320.226562 224.125 319.019531 222.394531 319.578125 C 220.566406 320.164062 219.539062 321.933594 219.992188 323.816406 C 220.304688 325.140625 220.605469 326.472656 220.824219 327.820312 C 220.847656 327.964844 220.871094 328.109375 220.894531 328.253906 C 220.910156 328.363281 221 328.980469 220.941406 328.53125 C 220.886719 328.132812 220.988281 328.96875 221 329.097656 C 221.078125 329.824219 221.125 330.550781 221.132812 331.277344 C 221.140625 331.898438 221.125 332.511719 221.070312 333.128906 C 221.0625 333.246094 220.996094 333.847656 221.054688 333.367188 C 221.109375 332.921875 221.046875 333.382812 221.039062 333.460938 C 220.972656 333.820312 220.902344 334.179688 220.8125 334.539062 C 220.742188 334.796875 220.664062 335.066406 220.582031 335.320312 C 220.519531 335.488281 220.449219 335.65625 220.398438 335.832031 C 220.414062 335.792969 220.664062 335.296875 220.472656 335.632812 C 220.320312 335.90625 220.191406 336.199219 220.03125 336.472656 C 219.921875 336.65625 219.296875 337.484375 219.777344 336.910156 C 219.378906 337.386719 218.941406 337.78125 218.5 338.210938 C 218.222656 338.480469 218.613281 338.128906 218.652344 338.097656 C 218.5 338.195312 218.355469 338.3125 218.199219 338.410156 C 217.894531 338.609375 217.574219 338.792969 217.253906 338.960938 C 217.007812 339.09375 216.753906 339.207031 216.503906 339.320312 C 217.128906 339.039062 216.394531 339.34375 216.148438 339.429688 C 215.523438 339.644531 214.878906 339.820312 214.238281 339.964844 C 213.578125 340.117188 212.914062 340.21875 212.246094 340.332031 C 211.847656 340.40625 212.398438 340.316406 212.445312 340.308594 C 212.300781 340.324219 212.15625 340.347656 212.015625 340.363281 C 211.632812 340.40625 211.253906 340.445312 210.871094 340.484375 C 209.277344 340.636719 207.6875 340.753906 206.085938 340.882812 C 199.03125 341.457031 191.980469 342.03125 184.925781 342.613281 C 181.535156 342.886719 178.121094 343.285156 174.722656 343.378906 C 173.890625 343.402344 173.046875 343.402344 172.214844 343.339844 C 172.066406 343.332031 171.203125 343.246094 171.714844 343.308594 C 171.25 343.246094 170.773438 343.148438 170.324219 343.035156 C 169.933594 342.933594 169.542969 342.820312 169.160156 342.6875 C 169.007812 342.636719 168.847656 342.582031 168.691406 342.519531 C 168.839844 342.574219 169.207031 342.773438 168.609375 342.46875 C 167.921875 342.113281 167.253906 341.730469 166.628906 341.273438 C 167.0625 341.59375 166.238281 340.921875 166.113281 340.796875 C 165.816406 340.515625 165.546875 340.21875 165.28125 339.902344 C 165.691406 340.394531 165.042969 339.503906 164.949219 339.34375 C 164.875 339.214844 164.8125 339.070312 164.738281 338.9375 C 164.5 338.539062 164.828125 339.367188 164.738281 338.914062 C 164.652344 338.53125 164.539062 338.128906 164.429688 337.753906 C 164.324219 337.371094 164.4375 337.867188 164.445312 337.929688 C 164.429688 337.675781 164.40625 337.429688 164.398438 337.1875 C 164.371094 336.367188 164.445312 335.5625 164.53125 334.761719 C 164.566406 334.355469 164.515625 334.851562 164.507812 334.90625 C 164.539062 334.699219 164.566406 334.492188 164.597656 334.285156 C 164.667969 333.871094 164.738281 333.460938 164.804688 333.046875 C 164.980469 332.019531 165.132812 330.988281 165.265625 329.953125 C 165.503906 328.085938 165.457031 326.289062 165.082031 324.4375 C 164.722656 322.667969 162.523438 321.488281 160.839844 322.03125 C 158.949219 322.675781 158.039062 324.414062 158.421875 326.304688 Z M 158.421875 326.304688 " fill-opacity="1" fill-rule="nonzero"/><path fill="#ffffff" d="M 172.902344 346.859375 C 172.441406 351.949219 172.015625 357.054688 173.15625 362.097656 C 173.820312 365.019531 175.105469 367.921875 177.257812 370.054688 C 179.851562 372.636719 183.488281 374.546875 187.152344 374.839844 C 189.464844 375.023438 191.8125 374.945312 194.125 374.832031 C 197.109375 374.679688 200.117188 374.394531 203.046875 373.8125 C 205.535156 373.324219 207.769531 372.558594 209.746094 370.945312 C 212.085938 369.03125 214.304688 367.085938 215.398438 364.1875 C 216.585938 361.0625 216.289062 357.503906 215.921875 354.261719 C 215.539062 350.878906 215.078125 347.378906 214.015625 344.128906 C 213.632812 342.949219 212.421875 342.183594 211.191406 342.519531 C 210.035156 342.835938 209.199219 344.15625 209.582031 345.34375 C 210.417969 347.894531 210.855469 350.609375 211.207031 353.265625 C 211.488281 355.402344 211.824219 358.46875 211.535156 360.742188 C 211.375 361.988281 211.097656 362.855469 210.507812 363.804688 C 210.441406 363.910156 210.066406 364.445312 210.15625 364.324219 C 210.25 364.210938 209.8125 364.714844 209.730469 364.8125 C 209.261719 365.320312 208.757812 365.785156 208.238281 366.238281 C 207.699219 366.703125 207.148438 367.15625 206.605469 367.605469 C 206.453125 367.730469 206.300781 367.851562 206.15625 367.980469 C 205.796875 368.289062 206.5 367.859375 206.246094 367.90625 C 206.085938 367.9375 205.855469 368.152344 205.710938 368.226562 C 205.527344 368.328125 205.34375 368.410156 205.152344 368.496094 C 205.695312 368.242188 205.066406 368.519531 204.914062 368.570312 C 204.378906 368.761719 203.820312 368.921875 203.269531 369.0625 C 202.054688 369.367188 200.820312 369.582031 199.582031 369.757812 C 199.527344 369.765625 199.136719 369.820312 199.488281 369.773438 C 199.328125 369.796875 199.175781 369.8125 199.015625 369.835938 C 198.691406 369.871094 198.378906 369.910156 198.058594 369.941406 C 197.339844 370.019531 196.621094 370.078125 195.890625 370.132812 C 193.503906 370.308594 191.109375 370.394531 188.722656 370.332031 C 186.140625 370.261719 183.976562 369.511719 181.75 367.882812 C 181.246094 367.515625 180.777344 367.101562 180.339844 366.652344 C 179.765625 366.054688 179.746094 366.015625 179.308594 365.320312 C 178.980469 364.796875 178.695312 364.253906 178.441406 363.695312 C 178.558594 363.957031 178.289062 363.304688 178.238281 363.160156 C 178.105469 362.792969 177.984375 362.417969 177.875 362.035156 C 176.515625 357.304688 177.019531 352.027344 177.488281 346.867188 C 177.601562 345.628906 176.355469 344.570312 175.191406 344.570312 C 173.867188 344.5625 173.015625 345.621094 172.902344 346.859375 Z M 172.902344 346.859375 " fill-opacity="1" fill-rule="nonzero"/><path fill="#ffffff" d="M 173.207031 103.859375 C 161.574219 106.507812 150.769531 111.980469 141.464844 119.402344 C 132.234375 126.765625 124.542969 136.195312 119.253906 146.746094 C 116.261719 152.71875 114.003906 159.054688 112.648438 165.597656 C 112.398438 166.8125 113 168.078125 114.257812 168.421875 C 115.398438 168.734375 116.828125 168.039062 117.082031 166.8125 C 119.375 155.6875 124.238281 145.371094 131.191406 136.339844 C 137.988281 127.515625 146.765625 120.085938 156.691406 114.84375 C 162.3125 111.878906 168.179688 109.699219 174.441406 108.277344 C 175.648438 108 176.363281 106.605469 176.046875 105.453125 C 175.6875 104.21875 174.425781 103.585938 173.207031 103.859375 Z M 173.207031 103.859375 " fill-opacity="1" fill-rule="nonzero"/><path fill="#ffffff" d="M 223.503906 106.140625 C 231.105469 106.332031 238.257812 111.007812 241.632812 117.949219 C 242.179688 119.066406 243.761719 119.363281 244.773438 118.777344 C 245.914062 118.109375 246.140625 116.753906 245.597656 115.636719 C 241.550781 107.3125 232.71875 101.785156 223.503906 101.554688 C 220.550781 101.472656 220.550781 106.0625 223.503906 106.140625 Z M 223.503906 106.140625 " fill-opacity="1" fill-rule="nonzero"/><path fill="#ffffff" d="M 164.835938 191.90625 C 168.921875 195.007812 174.25 196.523438 179.363281 196.195312 C 182.09375 196.019531 184.640625 195.34375 187.136719 194.257812 C 187.988281 193.882812 188.828125 193.453125 189.738281 193.777344 C 191.070312 194.234375 192.28125 194.976562 193.640625 195.382812 C 196.40625 196.210938 199.3125 196.300781 202.144531 195.820312 C 203.507812 195.589844 204.800781 195.167969 206.070312 194.625 C 207.195312 194.144531 208.375 193.222656 209.613281 193.078125 C 210.570312 192.972656 211.566406 193.492188 212.390625 193.898438 C 213.507812 194.449219 214.613281 195.007812 215.789062 195.414062 C 217.886719 196.148438 220.191406 196.460938 222.402344 196.363281 C 227.523438 196.140625 232.527344 193.796875 235.199219 189.28125 C 236.714844 186.734375 232.742188 184.421875 231.234375 186.964844 C 229.449219 189.972656 225.976562 191.578125 222.523438 191.761719 C 220.480469 191.871094 218.972656 191.671875 217.007812 190.980469 C 214.902344 190.246094 212.5625 188.527344 209.9375 188.488281 C 207.289062 188.449219 205.222656 190.230469 202.78125 190.960938 C 200.515625 191.632812 198.089844 191.738281 195.777344 191.195312 C 193.273438 190.613281 191.0625 188.800781 188.414062 189.097656 C 187.054688 189.253906 185.890625 189.84375 184.640625 190.355469 C 183.5 190.820312 182.300781 191.15625 181.082031 191.386719 C 176.246094 192.289062 171.105469 190.945312 167.132812 187.9375 C 166.144531 187.1875 164.5625 187.78125 163.996094 188.761719 C 163.320312 189.941406 163.839844 191.15625 164.835938 191.90625 Z M 164.835938 191.90625 " fill-opacity="1" fill-rule="nonzero"/><path fill="#ffffff" d="M 172.804688 196.53125 C 175.871094 201.664062 177.3125 207.511719 178.230469 213.375 C 179.222656 219.765625 179.773438 226.238281 180.378906 232.667969 C 181.671875 246.445312 182.597656 260.257812 183.140625 274.078125 C 183.449219 281.847656 183.632812 289.613281 183.699219 297.382812 C 183.722656 300.335938 188.316406 300.34375 188.292969 297.382812 C 188.171875 283.355469 187.664062 269.335938 186.761719 255.335938 C 185.882812 241.59375 184.832031 227.785156 182.941406 214.132812 C 181.988281 207.207031 180.378906 200.265625 176.757812 194.203125 C 175.257812 191.679688 171.289062 193.980469 172.804688 196.53125 Z M 172.804688 196.53125 " fill-opacity="1" fill-rule="nonzero"/><path fill="#ffffff" d="M 218.316406 192.902344 C 216.15625 194.945312 214.996094 197.738281 214.351562 200.59375 C 213.664062 203.6875 213.339844 206.886719 212.890625 210.023438 C 211.871094 217.164062 210.863281 224.3125 209.914062 231.460938 C 208.039062 245.59375 206.40625 259.777344 205.40625 274.003906 C 204.839844 282.054688 204.480469 290.121094 204.386719 298.195312 C 204.355469 301.148438 208.949219 301.148438 208.980469 298.195312 C 209.140625 284.1875 210.113281 270.207031 211.542969 256.277344 C 212.957031 242.472656 214.824219 228.71875 216.777344 214.980469 C 217.304688 211.261719 217.78125 207.535156 218.382812 203.832031 C 218.84375 201.015625 219.464844 198.113281 221.554688 196.140625 C 223.703125 194.113281 220.457031 190.867188 218.316406 192.902344 Z M 218.316406 192.902344 " fill-opacity="1" fill-rule="nonzero"/><path fill="#ffffff" d="M 282.15625 179.503906 C 282.296875 197.210938 271.671875 214.386719 255.90625 222.589844 C 253.65625 223.761719 251.539062 224.679688 249.105469 225.398438 C 246.632812 226.132812 243.785156 226.644531 241.398438 225.390625 C 240.304688 224.816406 238.902344 225.105469 238.257812 226.21875 C 237.65625 227.25 237.984375 228.78125 239.085938 229.355469 C 244.375 232.132812 250.390625 230.113281 255.488281 227.871094 C 259.980469 225.894531 264.113281 223.195312 267.847656 220.019531 C 275.324219 213.65625 280.980469 205.171875 284.117188 195.878906 C 285.890625 190.621094 286.796875 185.042969 286.757812 179.503906 C 286.726562 176.546875 282.132812 176.539062 282.15625 179.503906 Z M 282.15625 179.503906 " fill-opacity="1" fill-rule="nonzero"/><path fill="#ffffff" d="M 279.554688 189.933594 C 276.570312 195.78125 272.363281 200.976562 267.148438 204.988281 C 261.464844 209.363281 254.84375 211.890625 247.621094 211.660156 C 244.664062 211.570312 244.664062 216.160156 247.621094 216.253906 C 259.894531 216.652344 270.914062 209.753906 278.316406 200.335938 C 280.304688 197.800781 282.058594 195.128906 283.519531 192.261719 C 284.085938 191.15625 283.8125 189.773438 282.691406 189.121094 C 281.675781 188.511719 280.121094 188.824219 279.554688 189.933594 Z M 279.554688 189.933594 " fill-opacity="1" fill-rule="nonzero"/><path fill="#ffffff" d="M 281.546875 156.550781 C 281.867188 163.40625 281.707031 170.53125 279.027344 176.960938 C 276.808594 182.304688 272.738281 187.15625 267.082031 188.945312 C 263.875 189.964844 260.605469 189.972656 257.453125 188.761719 C 256.296875 188.320312 254.9375 189.253906 254.628906 190.371094 C 254.277344 191.664062 255.074219 192.75 256.238281 193.195312 C 263.015625 195.796875 270.753906 193.59375 276.097656 188.96875 C 281.429688 184.355469 284.421875 177.421875 285.53125 170.570312 C 286.28125 165.925781 286.351562 161.242188 286.128906 156.558594 C 286.066406 155.320312 285.121094 154.261719 283.832031 154.261719 C 282.640625 154.253906 281.484375 155.3125 281.546875 156.550781 Z M 281.546875 156.550781 " fill-opacity="1" fill-rule="nonzero"/><path fill="#ffffff" d="M 276.617188 139.070312 C 276.15625 150.152344 272.988281 162.910156 261.914062 167.894531 C 260.78125 168.398438 260.515625 170.042969 261.089844 171.03125 C 261.769531 172.195312 263.09375 172.363281 264.226562 171.855469 C 269.699219 169.402344 274.007812 164.679688 276.679688 159.375 C 279.847656 153.085938 280.910156 146.042969 281.199219 139.070312 C 281.253906 137.832031 280.105469 136.777344 278.90625 136.777344 C 277.625 136.777344 276.671875 137.824219 276.617188 139.070312 Z M 276.617188 139.070312 " fill-opacity="1" fill-rule="nonzero"/><path fill="#ffffff" d="M 263.804688 112.246094 C 267.507812 122.59375 267.898438 134.625 262.757812 144.550781 C 261.402344 147.160156 259.710938 149.527344 257.644531 151.613281 C 255.5625 153.710938 258.808594 156.964844 260.890625 154.859375 C 269.230469 146.457031 272.230469 133.96875 270.871094 122.433594 C 270.410156 118.53125 269.5625 114.71875 268.238281 111.023438 C 267.816406 109.859375 266.675781 109.070312 265.414062 109.414062 C 264.28125 109.730469 263.382812 111.070312 263.804688 112.246094 Z M 263.804688 112.246094 " fill-opacity="1" fill-rule="nonzero"/><path fill="#ffffff" d="M 250 98.902344 C 251.597656 100.4375 252.226562 102.550781 252.707031 104.6875 C 253.304688 107.296875 253.789062 109.945312 254.207031 112.585938 C 255.058594 117.917969 255.332031 123.4375 253.640625 128.640625 C 253.257812 129.820312 254.085938 131.144531 255.25 131.464844 C 256.496094 131.808594 257.691406 131.042969 258.074219 129.855469 C 260.023438 123.847656 259.621094 117.503906 258.640625 111.359375 C 258.1875 108.527344 257.691406 105.664062 257 102.878906 C 256.34375 100.210938 255.265625 97.59375 253.246094 95.65625 C 251.109375 93.605469 247.855469 96.847656 250 98.902344 Z M 250 98.902344 " fill-opacity="1" fill-rule="nonzero"/><path fill="#ffffff" d="M 155.046875 241.578125 C 157.941406 242.265625 159.691406 245.664062 161.09375 248.234375 C 162.855469 251.464844 164.164062 254.878906 165.082031 258.4375 C 165.816406 261.296875 170.246094 260.082031 169.511719 257.210938 C 168.449219 253.078125 166.839844 249.0625 164.746094 245.339844 C 162.816406 241.921875 160.351562 238.117188 156.273438 237.144531 C 155.070312 236.855469 153.785156 237.527344 153.449219 238.753906 C 153.121094 239.914062 153.832031 241.285156 155.046875 241.578125 Z M 155.046875 241.578125 " fill-opacity="1" fill-rule="nonzero"/><path fill="#ffffff" d="M 79.289062 224.695312 C 84.890625 223.15625 90.488281 221.617188 96.089844 220.078125 C 97.824219 219.605469 99.066406 217.613281 98.492188 215.839844 C 97.917969 214.0625 96.121094 212.921875 94.25 213.4375 C 88.648438 214.972656 83.054688 216.511719 77.453125 218.050781 C 75.714844 218.527344 74.476562 220.515625 75.050781 222.289062 C 75.632812 224.066406 77.429688 225.207031 79.289062 224.695312 Z M 79.289062 224.695312 " fill-opacity="1" fill-rule="nonzero"/><path fill="#ffffff" d="M 32.789062 188.710938 C 40.3125 187.945312 47.882812 187.738281 55.4375 188.105469 C 59.179688 188.289062 62.914062 188.609375 66.632812 189.078125 C 66.875 189.105469 67.121094 189.136719 67.367188 189.167969 C 67.796875 189.222656 67.855469 189.230469 67.550781 189.191406 C 68.039062 189.261719 68.523438 189.328125 69.011719 189.398438 C 69.863281 189.519531 70.710938 189.65625 71.5625 189.796875 C 73.496094 190.117188 75.433594 190.476562 77.363281 190.875 C 79.121094 191.234375 81.164062 190.363281 81.601562 188.472656 C 81.992188 186.75 81.082031 184.621094 79.199219 184.230469 C 63.953125 181.109375 48.289062 180.238281 32.804688 181.8125 C 31.023438 181.996094 29.269531 183.269531 29.363281 185.257812 C 29.421875 186.972656 30.871094 188.90625 32.789062 188.710938 Z M 32.789062 188.710938 " fill-opacity="1" fill-rule="nonzero"/><path fill="#ffffff" d="M 67.441406 146.722656 C 67.65625 146.695312 67.878906 146.65625 68.09375 146.632812 C 67.789062 146.671875 67.480469 146.71875 67.175781 146.753906 C 69.355469 146.480469 71.554688 146.480469 73.734375 146.753906 C 73.429688 146.71875 73.121094 146.671875 72.816406 146.632812 C 74.414062 146.855469 75.976562 147.214844 77.507812 147.71875 C 79.222656 148.285156 81.347656 147.0625 81.746094 145.316406 C 82.183594 143.417969 81.171875 141.6875 79.34375 141.078125 C 74.898438 139.597656 70.222656 139.363281 65.605469 140.082031 C 64.8125 140.203125 63.9375 141 63.546875 141.664062 C 63.121094 142.402344 62.9375 143.496094 63.203125 144.320312 C 63.472656 145.15625 63.992188 145.960938 64.789062 146.378906 C 65.660156 146.839844 66.472656 146.871094 67.441406 146.722656 Z M 67.441406 146.722656 " fill-opacity="1" fill-rule="nonzero"/><path fill="#ffffff" d="M 46.222656 69.796875 C 46.679688 69.925781 47.117188 70.09375 47.566406 70.246094 C 48.121094 70.4375 46.886719 69.886719 47.75 70.332031 C 47.9375 70.429688 48.125 70.515625 48.316406 70.613281 C 49.207031 71.074219 50.054688 71.617188 50.867188 72.199219 C 51.042969 72.320312 51.210938 72.453125 51.378906 72.574219 C 51.875 72.917969 50.773438 72.078125 51.570312 72.71875 C 51.898438 72.988281 52.238281 73.253906 52.558594 73.53125 C 53.339844 74.1875 54.105469 74.871094 54.871094 75.550781 C 58.335938 78.644531 61.804688 81.742188 65.269531 84.84375 C 72.203125 91.03125 79.144531 97.222656 86.078125 103.414062 C 89.972656 106.890625 93.871094 110.371094 97.765625 113.847656 C 99.113281 115.046875 101.332031 115.269531 102.632812 113.847656 C 103.832031 112.539062 104.070312 110.257812 102.632812 108.980469 C 88.472656 96.34375 74.316406 83.703125 60.15625 71.066406 C 56.53125 67.828125 52.816406 64.539062 48.042969 63.160156 C 46.3125 62.664062 44.214844 63.765625 43.804688 65.5625 C 43.398438 67.402344 44.371094 69.269531 46.222656 69.796875 Z M 46.222656 69.796875 " fill-opacity="1" fill-rule="nonzero"/><path fill="#ffffff" d="M 117.953125 61.285156 C 117.449219 60.644531 118.199219 61.605469 118.28125 61.722656 C 118.511719 62.027344 118.742188 62.335938 118.964844 62.640625 C 119.414062 63.253906 119.851562 63.878906 120.289062 64.507812 C 121.152344 65.761719 121.988281 67.039062 122.773438 68.34375 C 124.367188 70.945312 125.804688 73.636719 127.105469 76.394531 C 127.871094 78.03125 130.351562 78.574219 131.820312 77.625 C 133.503906 76.539062 133.878906 74.664062 133.054688 72.910156 C 130.28125 67.019531 126.816406 61.546875 122.820312 56.402344 C 122.316406 55.761719 121.160156 55.394531 120.386719 55.394531 C 119.546875 55.394531 118.535156 55.769531 117.953125 56.402344 C 116.5625 57.925781 116.765625 59.753906 117.953125 61.285156 Z M 117.953125 61.285156 " fill-opacity="1" fill-rule="nonzero"/><path fill="#ffffff" d="M 162.433594 4.761719 C 164.890625 19.988281 170.652344 34.378906 174.570312 49.246094 C 175.671875 53.441406 176.621094 57.679688 177.316406 61.960938 C 177.609375 63.742188 179.921875 64.890625 181.558594 64.363281 C 183.496094 63.734375 184.273438 62.035156 183.960938 60.121094 C 181.496094 44.894531 175.734375 30.503906 171.816406 15.644531 C 170.714844 11.449219 169.765625 7.210938 169.074219 2.929688 C 168.785156 1.148438 166.472656 0 164.835938 0.527344 C 162.898438 1.148438 162.121094 2.847656 162.433594 4.761719 Z M 162.433594 4.761719 " fill-opacity="1" fill-rule="nonzero"/><path fill="#ffffff" d="M 231.066406 46.085938 C 227.308594 51.097656 224.101562 56.503906 221.507812 62.203125 C 220.765625 63.84375 220.988281 65.984375 222.738281 66.917969 C 224.246094 67.714844 226.65625 67.429688 227.453125 65.6875 C 230.046875 59.984375 233.253906 54.582031 237.011719 49.570312 C 238.097656 48.121094 237.296875 45.65625 235.78125 44.855469 C 233.972656 43.890625 232.222656 44.539062 231.066406 46.085938 Z M 231.066406 46.085938 " fill-opacity="1" fill-rule="nonzero"/><path fill="#ffffff" d="M 262.980469 82.21875 C 275.78125 76.246094 288.203125 69.460938 300.140625 61.898438 C 303.515625 59.761719 306.847656 57.558594 310.144531 55.300781 C 311.628906 54.28125 312.441406 52.230469 311.375 50.585938 C 310.429688 49.109375 308.253906 48.261719 306.664062 49.355469 C 295.015625 57.34375 282.855469 64.59375 270.273438 71.019531 C 266.714844 72.835938 263.125 74.585938 259.503906 76.277344 C 257.867188 77.042969 257.324219 79.523438 258.273438 80.992188 C 259.351562 82.667969 261.226562 83.035156 262.980469 82.21875 Z M 262.980469 82.21875 " fill-opacity="1" fill-rule="nonzero"/><path fill="#ffffff" d="M 291.769531 110.703125 C 297.625 108.941406 303.316406 106.621094 308.746094 103.804688 C 310.34375 102.972656 310.957031 100.597656 309.976562 99.09375 C 308.921875 97.460938 306.976562 96.964844 305.261719 97.859375 C 304.015625 98.511719 302.757812 99.128906 301.480469 99.71875 C 300.847656 100.019531 300.203125 100.300781 299.558594 100.585938 C 299.4375 100.636719 298.273438 101.128906 299 100.828125 C 298.679688 100.96875 298.351562 101.097656 298.03125 101.226562 C 295.375 102.296875 292.679688 103.238281 289.941406 104.058594 C 288.21875 104.578125 286.957031 106.5 287.539062 108.296875 C 288.097656 110.035156 289.917969 111.253906 291.769531 110.703125 Z M 291.769531 110.703125 " fill-opacity="1" fill-rule="nonzero"/><path fill="#ffffff" d="M 302.015625 157.835938 C 308.867188 158.578125 314.675781 159.335938 321.355469 160.378906 C 327.960938 161.402344 334.542969 162.589844 341.101562 163.914062 C 342.863281 164.273438 344.90625 163.40625 345.339844 161.511719 C 345.730469 159.796875 344.820312 157.652344 342.9375 157.269531 C 329.40625 154.53125 315.746094 152.425781 302.015625 150.949219 C 300.21875 150.757812 298.496094 152.671875 298.574219 154.394531 C 298.664062 156.429688 300.097656 157.628906 302.015625 157.835938 Z M 302.015625 157.835938 " fill-opacity="1" fill-rule="nonzero"/><path fill="#ffffff" d="M 300.496094 200.777344 C 304.855469 201.472656 309.21875 202.171875 313.582031 202.867188 C 314.523438 203.019531 315.378906 203.019531 316.238281 202.523438 C 316.949219 202.101562 317.628906 201.28125 317.820312 200.464844 C 318.195312 198.8125 317.316406 196.53125 315.417969 196.222656 C 311.054688 195.527344 306.691406 194.832031 302.332031 194.136719 C 301.390625 193.980469 300.53125 193.980469 299.675781 194.480469 C 298.964844 194.902344 298.28125 195.71875 298.089844 196.539062 C 297.707031 198.191406 298.589844 200.472656 300.496094 200.777344 Z M 300.496094 200.777344 " fill-opacity="1" fill-rule="nonzero"/><path fill="#ffffff" d="M 286.535156 225.589844 C 300.113281 235.140625 312.871094 244.761719 325.589844 255.0625 C 329.191406 257.976562 332.773438 260.9375 336.316406 263.921875 C 337.695312 265.078125 339.855469 265.378906 341.183594 263.921875 C 342.355469 262.644531 342.65625 260.289062 341.183594 259.054688 C 328.304688 248.21875 315.050781 237.8125 301.464844 227.871094 C 297.671875 225.09375 293.851562 222.351562 290.007812 219.652344 C 288.53125 218.609375 286.113281 219.335938 285.296875 220.882812 C 284.371094 222.644531 284.957031 224.480469 286.535156 225.589844 Z M 286.535156 225.589844 " fill-opacity="1" fill-rule="nonzero"/><path fill="#ffffff" d="M 266.730469 249.710938 C 267.816406 250.515625 268.894531 251.335938 269.972656 252.160156 C 270.042969 252.214844 270.496094 252.558594 270.113281 252.269531 C 269.738281 251.976562 270.179688 252.320312 270.25 252.375 C 270.507812 252.574219 270.769531 252.78125 271.023438 252.980469 C 271.574219 253.40625 272.117188 253.84375 272.667969 254.28125 C 274.789062 255.972656 276.871094 257.703125 278.929688 259.460938 C 280.296875 260.632812 282.472656 260.90625 283.796875 259.460938 C 284.972656 258.175781 285.257812 255.84375 283.796875 254.59375 C 279.394531 250.828125 274.855469 247.222656 270.203125 243.773438 C 269.53125 243.277344 268.320312 243.214844 267.546875 243.429688 C 266.75 243.652344 265.886719 244.261719 265.488281 245.011719 C 265.066406 245.808594 264.855469 246.78125 265.144531 247.667969 C 265.4375 248.554688 265.964844 249.144531 266.730469 249.710938 Z M 266.730469 249.710938 " fill-opacity="1" fill-rule="nonzero"/><path fill="#ffffff" d="M 111.664062 239.449219 C 97.144531 249.503906 84.914062 262.324219 71.246094 273.4375 C 70.296875 274.203125 69.347656 274.960938 68.382812 275.71875 C 68.316406 275.769531 67.871094 276.113281 68.292969 275.785156 C 68.03125 275.984375 67.765625 276.191406 67.503906 276.390625 C 67.023438 276.757812 66.53125 277.125 66.042969 277.484375 C 64.039062 278.96875 61.996094 280.402344 59.914062 281.761719 C 58.40625 282.75 57.632812 284.855469 58.679688 286.476562 C 59.652344 287.976562 61.78125 288.765625 63.394531 287.710938 C 78.171875 278.027344 90.480469 265.261719 103.972656 253.972656 C 107.898438 250.691406 110.914062 248.328125 115.136719 245.394531 C 116.613281 244.371094 117.433594 242.328125 116.371094 240.679688 C 115.429688 239.21875 113.246094 238.355469 111.664062 239.449219 Z M 111.664062 239.449219 " fill-opacity="1" fill-rule="nonzero"/></svg>