<svg xmlns="http://www.w3.org/2000/svg" xmlns:xlink="http://www.w3.org/1999/xlink" width="500" zoomAndPan="magnify" viewBox="0 0 375 374.999991" height="500" preserveAspectRatio="xMidYMid meet" version="1.0"><path fill="#033792" d="M 367.601562 366.507812 L 332.617188 273.207031 C 331.980469 271.507812 330.578125 270.195312 328.835938 269.671875 L 281.3125 255.394531 L 274.5625 221.632812 C 273.964844 218.644531 271.203125 216.667969 268.121094 216.992188 L 239.6875 220.546875 L 239.6875 125.710938 C 241.535156 125.035156 243.3125 124.148438 244.875 122.867188 C 248.992188 119.492188 251.351562 114.507812 251.351562 109.183594 C 251.351562 101.773438 246.59375 95.140625 239.6875 92.613281 L 239.6875 84.667969 C 241.484375 82.488281 247.503906 77 263.011719 77 C 266.128906 77 267.898438 77.234375 268.851562 77.4375 C 269.101562 87.3125 277.8125 88.660156 286.335938 88.660156 C 316.523438 88.660156 340.421875 76.886719 341.425781 76.382812 C 343.402344 75.394531 344.648438 73.378906 344.648438 71.167969 L 344.648438 7.027344 C 344.648438 5.011719 343.601562 3.136719 341.886719 2.070312 C 340.171875 1.011719 338.027344 0.898438 336.214844 1.808594 C 335.992188 1.917969 313.671875 12.855469 286.335938 12.855469 C 283.222656 12.855469 281.453125 12.625 280.5 12.417969 C 280.25 2.542969 271.539062 1.195312 263.011719 1.195312 C 236.839844 1.195312 229.40625 14.554688 228.640625 16.078125 C 228.238281 16.886719 228.027344 17.78125 228.027344 18.6875 L 228.027344 89.078125 L 151.203125 66.390625 C 155.414062 61.335938 158.054688 54.921875 158.054688 47.84375 L 158.054688 36.179688 C 158.054688 20.105469 144.972656 7.027344 128.898438 7.027344 C 112.824219 7.027344 99.742188 20.105469 99.742188 36.179688 L 99.742188 47.84375 C 99.742188 49.484375 99.964844 51.070312 100.226562 52.640625 L 52.132812 8.550781 C 46.414062 3.300781 37.894531 2.652344 31.433594 6.957031 C 27.429688 9.621094 24.753906 13.886719 24.097656 18.652344 C 23.4375 23.421875 24.859375 28.25 27.992188 31.898438 L 88.484375 102.480469 L 88.082031 285.789062 L 73.257812 322.851562 L 29.121094 327.773438 C 27.15625 327.996094 25.4375 329.195312 24.554688 330.960938 L 7.058594 365.949219 C 5.617188 368.832031 6.785156 372.332031 9.667969 373.773438 C 10.503906 374.1875 11.394531 374.386719 12.269531 374.386719 C 14.410156 374.386719 16.46875 373.210938 17.492188 371.164062 L 33.566406 339.015625 L 68.34375 335.136719 L 65.171875 343.070312 C 63.976562 346.058594 65.433594 349.453125 68.421875 350.648438 C 69.128906 350.933594 69.863281 351.0625 70.585938 351.0625 C 72.898438 351.0625 75.089844 349.679688 76.003906 347.398438 L 98.214844 291.863281 L 118.78125 286.8125 L 188.171875 275.179688 C 190.300781 274.820312 192.058594 273.316406 192.738281 271.273438 L 203.390625 239.320312 L 223.265625 234.351562 L 264.191406 229.234375 L 280.621094 311.390625 C 281.246094 314.546875 284.289062 316.625 287.480469 315.964844 C 290.636719 315.332031 292.6875 312.261719 292.054688 309.101562 L 283.90625 268.355469 L 322.707031 280.015625 L 356.679688 370.609375 C 357.558594 372.949219 359.785156 374.386719 362.140625 374.386719 C 362.824219 374.386719 363.515625 374.269531 364.191406 374.019531 C 367.203125 372.886719 368.730469 369.527344 367.601562 366.507812 Z M 280.507812 24.195312 C 282.390625 24.429688 284.367188 24.519531 286.335938 24.519531 C 306.171875 24.519531 323.292969 19.433594 332.988281 15.804688 L 332.988281 67.386719 C 325.835938 70.375 307.601562 77 286.335938 77 C 283.226562 77 281.460938 76.765625 280.507812 76.5625 Z M 239.6875 20.492188 C 241.574219 18.253906 247.707031 12.855469 263.011719 12.855469 C 266.125 12.855469 267.890625 13.089844 268.84375 13.292969 L 268.84375 65.660156 C 266.957031 65.425781 264.984375 65.335938 263.011719 65.335938 C 252.449219 65.335938 244.9375 67.511719 239.6875 70.210938 Z M 111.40625 36.179688 C 111.40625 26.535156 119.25 18.6875 128.898438 18.6875 C 138.542969 18.6875 146.390625 26.535156 146.390625 36.179688 L 146.390625 47.84375 C 146.390625 57.488281 138.542969 65.335938 128.898438 65.335938 C 119.25 65.335938 111.40625 57.488281 111.40625 47.84375 Z M 182.785156 264.257812 L 124.289062 274.082031 L 134.519531 181.988281 L 177.367188 192.699219 L 192.695312 234.539062 Z M 228.027344 222.003906 L 226.519531 222.195312 L 210.738281 162.964844 C 210.289062 161.261719 209.085938 159.855469 207.476562 159.136719 L 159.074219 137.628906 L 162.882812 113.070312 L 228.027344 126.097656 Z M 232.480469 115.09375 L 159.199219 100.4375 C 157.632812 100.136719 156.019531 100.472656 154.714844 101.378906 C 153.414062 102.28125 152.535156 103.691406 152.289062 105.261719 L 146.863281 140.25 C 146.460938 142.851562 147.847656 145.402344 150.257812 146.472656 L 200.191406 168.664062 L 215.039062 224.390625 L 202.542969 227.511719 L 187.261719 185.785156 C 186.59375 183.96875 185.074219 182.605469 183.195312 182.136719 L 136.546875 170.472656 C 136.085938 170.355469 135.613281 170.296875 135.132812 170.296875 L 129.300781 170.296875 C 126.328125 170.296875 123.835938 172.53125 123.503906 175.484375 L 112.292969 276.398438 L 99.765625 279.480469 L 100.148438 158.636719 L 100.148438 100.324219 C 100.148438 98.933594 99.652344 97.585938 98.742188 96.53125 L 36.839844 24.308594 C 35.867188 23.175781 35.445312 21.734375 35.652344 20.25 C 35.855469 18.769531 36.652344 17.492188 37.902344 16.660156 C 38.777344 16.074219 39.773438 15.789062 40.765625 15.789062 C 42.023438 15.789062 43.269531 16.25 44.25 17.152344 L 95.636719 64.253906 C 104.609375 72.472656 116.246094 77 128.402344 77 L 145.953125 77 L 235.367188 103.40625 C 237.953125 104.167969 239.6875 106.492188 239.6875 109.183594 C 239.6875 110.996094 238.886719 112.699219 237.480469 113.847656 C 236.078125 115 234.25 115.449219 232.480469 115.097656 Z M 198.769531 299.660156 L 185.648438 369.632812 C 185.125 372.433594 182.675781 374.386719 179.925781 374.386719 C 179.574219 374.386719 179.207031 374.355469 178.84375 374.285156 C 175.679688 373.695312 173.59375 370.648438 174.191406 367.480469 L 187.3125 297.507812 C 187.902344 294.347656 190.933594 292.269531 194.117188 292.855469 C 197.28125 293.445312 199.367188 296.492188 198.769531 299.660156 Z M 274.261719 343.070312 C 275.457031 346.058594 273.996094 349.453125 271.007812 350.648438 C 270.300781 350.933594 269.566406 351.0625 268.84375 351.0625 C 266.53125 351.0625 264.339844 349.679688 263.429688 347.398438 L 252.773438 320.753906 L 237.84375 315.773438 C 235.863281 315.113281 234.382812 313.441406 233.972656 311.390625 L 228.140625 282.234375 C 227.507812 279.074219 229.558594 276.003906 232.714844 275.371094 C 235.894531 274.707031 238.941406 276.789062 239.574219 279.945312 L 244.746094 305.78125 L 259.027344 310.546875 C 260.65625 311.089844 261.960938 312.320312 262.597656 313.914062 Z M 140.144531 324.070312 L 128.480469 353.226562 C 127.84375 354.824219 126.539062 356.050781 124.910156 356.59375 L 109.980469 361.570312 L 106.324219 370.722656 C 105.414062 373.003906 103.222656 374.390625 100.910156 374.390625 C 100.1875 374.390625 99.453125 374.257812 98.746094 373.972656 C 95.757812 372.777344 94.296875 369.382812 95.496094 366.394531 L 100.15625 354.730469 C 100.796875 353.136719 102.101562 351.90625 103.730469 351.367188 L 118.660156 346.390625 L 129.3125 319.746094 C 130.507812 316.75 133.925781 315.296875 136.894531 316.492188 C 139.882812 317.6875 141.339844 321.082031 140.144531 324.070312 Z M 140.144531 324.070312 " fill-opacity="1" fill-rule="nonzero"/></svg>