<svg xmlns="http://www.w3.org/2000/svg" xmlns:xlink="http://www.w3.org/1999/xlink" width="500" zoomAndPan="magnify" viewBox="0 0 375 374.999991" height="500" preserveAspectRatio="xMidYMid meet" version="1.0"><defs><clipPath id="13a89c1c2"><path d="M 10 17 L 367 17 L 367 360 L 10 360 Z M 10 17 " clip-rule="nonzero"/></clipPath><clipPath id="5ebaf70a0f"><path d="M 291.109375 434.335938 L 7.195312 342.160156 L 126.703125 -25.925781 L 410.613281 66.25 Z M 291.109375 434.335938 " clip-rule="nonzero"/></clipPath><clipPath id="54c0c429ed"><path d="M 291.109375 434.335938 L 7.195312 342.160156 L 126.703125 -25.925781 L 410.613281 66.25 Z M 291.109375 434.335938 " clip-rule="nonzero"/></clipPath></defs><g clip-path="url(#13a89c1c2)"><g clip-path="url(#5ebaf70a0f)"><g clip-path="url(#54c0c429ed)"><path fill="#ffffff" d="M 276.339844 33.550781 C 271.015625 28.808594 266.132812 24.402344 261.972656 20.285156 C 258.035156 16.386719 251.671875 16.417969 247.769531 20.359375 C 243.871094 24.300781 243.90625 30.664062 247.84375 34.5625 C 252.230469 38.902344 257.371094 43.554688 262.984375 48.550781 C 267.125 52.238281 273.476562 51.871094 277.164062 47.730469 C 280.847656 43.589844 280.480469 37.238281 276.339844 33.550781 Z M 320.679688 75.933594 C 315.988281 70.714844 311.160156 65.738281 306.324219 60.996094 C 302.367188 57.117188 296.003906 57.179688 292.121094 61.140625 C 288.242188 65.097656 288.304688 71.460938 292.261719 75.339844 C 296.804688 79.792969 301.339844 84.460938 305.742188 89.363281 C 309.449219 93.484375 315.804688 93.824219 319.925781 90.117188 C 324.046875 86.410156 324.386719 80.054688 320.679688 75.933594 Z M 355.542969 128.78125 C 352.746094 122.140625 349.480469 115.769531 345.859375 109.65625 C 343.035156 104.886719 336.871094 103.308594 332.101562 106.136719 C 327.332031 108.960938 325.753906 115.125 328.578125 119.894531 C 331.742188 125.230469 334.59375 130.789062 337.035156 136.582031 C 339.1875 141.6875 345.082031 144.085938 350.1875 141.933594 C 355.296875 139.78125 357.695312 133.886719 355.542969 128.78125 Z M 365.617188 192.492188 C 366.289062 185.011719 366.324219 177.78125 365.808594 170.785156 C 365.398438 165.257812 360.578125 161.105469 355.050781 161.511719 C 349.523438 161.921875 345.367188 166.742188 345.777344 172.269531 C 346.214844 178.207031 346.183594 184.34375 345.609375 190.691406 C 345.113281 196.210938 349.191406 201.097656 354.714844 201.59375 C 360.234375 202.089844 365.121094 198.011719 365.617188 192.492188 Z M 344.859375 253.90625 C 348.863281 248.230469 352.433594 241.75 355.5 234.34375 C 357.617188 229.222656 355.183594 223.34375 350.058594 221.222656 C 344.9375 219.105469 339.058594 221.542969 336.941406 226.664062 C 334.488281 232.589844 331.648438 237.789062 328.445312 242.332031 C 325.25 246.859375 326.335938 253.132812 330.863281 256.324219 C 335.394531 259.519531 341.664062 258.433594 344.859375 253.90625 Z M 288.734375 288.855469 C 296.132812 287.316406 303.191406 285.175781 309.839844 282.292969 C 314.921875 280.082031 317.257812 274.164062 315.050781 269.078125 C 312.84375 263.996094 306.925781 261.660156 301.839844 263.867188 C 296.425781 266.214844 290.667969 267.9375 284.644531 269.191406 C 279.21875 270.320312 275.726562 275.640625 276.855469 281.066406 C 277.988281 286.496094 283.308594 289.984375 288.734375 288.855469 Z M 226.167969 291.683594 C 233.078125 292.015625 239.921875 292.257812 246.648438 292.304688 C 252.191406 292.347656 256.726562 287.878906 256.765625 282.335938 C 256.808594 276.792969 252.339844 272.261719 246.796875 272.21875 C 240.339844 272.171875 233.765625 271.9375 227.128906 271.621094 C 221.59375 271.355469 216.882812 275.636719 216.617188 281.171875 C 216.351562 286.710938 220.632812 291.417969 226.167969 291.683594 Z M 166.535156 289.183594 C 172.992188 289.132812 179.542969 289.289062 186.132812 289.550781 C 191.671875 289.773438 196.347656 285.457031 196.570312 279.917969 C 196.789062 274.378906 192.472656 269.703125 186.933594 269.480469 C 180.023438 269.203125 173.148438 269.042969 166.375 269.097656 C 160.832031 269.140625 156.367188 273.679688 156.410156 279.222656 C 156.453125 284.765625 160.992188 289.226562 166.535156 289.183594 Z M 111.527344 298.558594 C 117.023438 296.144531 122.800781 294.320312 128.796875 292.949219 C 134.203125 291.714844 137.585938 286.328125 136.351562 280.921875 C 135.117188 275.519531 129.726562 272.132812 124.324219 273.371094 C 117.074219 275.027344 110.089844 277.25 103.449219 280.167969 C 98.375 282.398438 96.0625 288.328125 98.292969 293.402344 C 100.523438 298.476562 106.453125 300.785156 111.527344 298.558594 Z M 63.207031 324.777344 L 82.96875 314.703125 C 87.90625 312.1875 89.871094 306.132812 87.355469 301.195312 C 84.835938 296.257812 78.78125 294.289062 73.84375 296.808594 L 54.082031 306.882812 L 44.007812 287.121094 C 41.492188 282.183594 35.4375 280.21875 30.5 282.734375 C 25.5625 285.253906 23.59375 291.304688 26.113281 296.246094 L 36.1875 316.007812 L 16.425781 326.082031 C 11.488281 328.597656 9.523438 334.652344 12.039062 339.589844 C 14.558594 344.527344 20.609375 346.492188 25.550781 343.976562 L 45.3125 333.902344 L 55.386719 353.664062 C 57.902344 358.601562 63.957031 360.566406 68.894531 358.050781 C 73.832031 355.53125 75.796875 349.476562 73.28125 344.539062 Z M 63.207031 324.777344 " fill-opacity="1" fill-rule="evenodd"/></g></g></g></svg>