<svg xmlns="http://www.w3.org/2000/svg" xmlns:xlink="http://www.w3.org/1999/xlink" width="500" zoomAndPan="magnify" viewBox="0 0 375 374.999991" height="500" preserveAspectRatio="xMidYMid meet" version="1.0"><defs><filter x="0%" y="0%" width="100%" height="100%" id="bd98cfb5ba"><feColorMatrix values="0 0 0 0 1 0 0 0 0 1 0 0 0 0 1 0 0 0 1 0" color-interpolation-filters="sRGB"/></filter><mask id="384248ecb7"><g filter="url(#bd98cfb5ba)"><rect x="-37.5" width="450" fill="#000000" y="-37.499999" height="449.999989" fill-opacity=".8"/></g></mask><clipPath id="2b24bc05ea"><path d="M 0.195312 205 L 123 205 L 123 364 L 0.195312 364 Z M 0.195312 205 " clip-rule="nonzero"/></clipPath><clipPath id="192a5b2f6d"><path d="M 286 0.0585938 L 335.148438 0.0585938 L 335.148438 63.835938 L 286 63.835938 Z M 286 0.0585938 " clip-rule="nonzero"/></clipPath><clipPath id="cd2ecfd271"><path d="M 74.382812 354.078125 L 89 354.078125 L 89 364.539062 L 74.382812 364.539062 Z M 74.382812 354.078125 " clip-rule="nonzero"/></clipPath><clipPath id="f09bbafd7f"><rect x="0" width="337" y="0" height="366"/></clipPath></defs><g mask="url(#384248ecb7)"><g transform="matrix(1, 0, 0, 1, 20, 5)"><g clip-path="url(#f09bbafd7f)"><g clip-path="url(#2b24bc05ea)"><path fill="#033792" d="M 61.367188 305.398438 C 38.941406 305.398438 20.757812 287.214844 20.757812 264.789062 C 20.757812 242.363281 38.941406 224.183594 61.367188 224.183594 C 83.792969 224.183594 101.972656 242.363281 101.972656 264.789062 C 101.972656 287.214844 83.792969 305.398438 61.367188 305.398438 Z M 61.367188 205.199219 C 27.582031 205.199219 0.195312 232.585938 0.195312 266.371094 C 0.195312 300.15625 52.933594 363.40625 61.367188 363.40625 C 70.335938 363.40625 122.542969 300.15625 122.542969 266.371094 C 122.542969 232.585938 95.15625 205.199219 61.367188 205.199219 " fill-opacity="1" fill-rule="nonzero"/></g><g clip-path="url(#192a5b2f6d)"><path fill="#033792" d="M 310.683594 40.136719 C 301.707031 40.136719 294.4375 32.867188 294.4375 23.894531 C 294.4375 14.925781 301.707031 7.65625 310.683594 7.65625 C 319.652344 7.65625 326.921875 14.925781 326.921875 23.894531 C 326.921875 32.867188 319.652344 40.136719 310.683594 40.136719 Z M 310.683594 0.0585938 C 297.167969 0.0585938 286.210938 11.011719 286.210938 24.527344 C 286.210938 38.042969 307.304688 63.339844 310.683594 63.339844 C 314.265625 63.339844 335.152344 38.042969 335.152344 24.527344 C 335.152344 11.011719 324.195312 0.0585938 310.683594 0.0585938 " fill-opacity="0" fill-rule="nonzero"/></g><path fill="#033792" d="M 249.503906 77.832031 L 247.933594 71.714844 L 278.652344 64.382812 L 279.945312 69.394531 Z M 208.984375 88.707031 L 206.910156 82.035156 C 206.90625 82.066406 237.675781 74.316406 237.730469 74.3125 L 239.316406 80.46875 C 239.316406 80.46875 209.003906 88.695312 208.984375 88.707031 Z M 181.472656 113.042969 L 173.863281 110.894531 C 176.800781 100.492188 184.808594 91.546875 196.417969 85.714844 L 199.96875 92.785156 C 187.667969 98.964844 183.121094 107.210938 181.472656 113.042969 Z M 192.355469 150.066406 C 188.554688 147.527344 186.175781 145.949219 185.699219 145.632812 L 185.425781 145.445312 C 178.179688 140.054688 173.558594 131.773438 172.746094 122.730469 L 180.625 122.023438 C 181.234375 128.804688 184.683594 135.007812 190.089844 139.058594 C 191.453125 139.953125 196.691406 143.453125 196.746094 143.488281 Z M 227.207031 173.722656 C 218.769531 167.910156 209.984375 161.925781 201.097656 155.9375 L 205.523438 149.378906 C 214.429688 155.382812 223.234375 161.382812 231.695312 167.210938 Z M 261.613281 197.917969 C 253.878906 192.347656 245.214844 186.21875 235.859375 179.710938 L 240.375 173.21875 C 249.765625 179.753906 258.46875 185.898438 266.242188 191.5 Z M 295.058594 223.191406 C 288.683594 217.984375 280.292969 211.5625 270.117188 204.09375 L 274.792969 197.71875 C 285.082031 205.265625 293.585938 211.773438 300.0625 217.070312 Z M 322.441406 254.683594 L 314.535156 254.417969 C 314.546875 254.082031 314.550781 253.746094 314.550781 253.410156 C 314.550781 247.222656 312.632812 241.285156 309.003906 236.238281 C 308.265625 235.207031 306.605469 233.269531 302.914062 229.90625 L 308.238281 224.054688 C 311.660156 227.167969 314.007812 229.644531 315.429688 231.621094 C 320.03125 238.023438 322.460938 245.554688 322.460938 253.410156 C 322.460938 253.832031 322.457031 254.261719 322.441406 254.683594 Z M 298.75 291.710938 L 293.941406 285.425781 C 300.574219 280.347656 305.753906 275.171875 309.335938 270.035156 C 310.753906 267.996094 311.90625 265.78125 312.765625 263.457031 L 320.1875 266.191406 C 319.101562 269.148438 317.632812 271.964844 315.820312 274.5625 C 311.773438 280.363281 306.03125 286.132812 298.75 291.710938 Z M 261.609375 313.148438 L 258.308594 305.960938 C 268.769531 301.167969 277.945312 296.230469 285.585938 291.289062 L 289.882812 297.929688 C 281.921875 303.078125 272.410156 308.199219 261.609375 313.148438 Z M 222.082031 328.703125 L 219.519531 321.214844 C 230.058594 317.609375 239.90625 313.882812 248.792969 310.140625 L 251.859375 317.429688 C 242.808594 321.242188 232.789062 325.035156 222.082031 328.703125 Z M 181.601562 341.101562 L 179.496094 333.480469 C 190.027344 330.574219 200.152344 327.558594 209.59375 324.511719 L 212.023438 332.039062 C 202.472656 335.117188 192.238281 338.167969 181.601562 341.101562 Z M 140.601562 351.429688 L 138.832031 343.714844 C 149.308594 341.3125 159.582031 338.785156 169.378906 336.207031 L 171.386719 343.859375 C 161.515625 346.449219 151.15625 349.003906 140.601562 351.429688 Z M 99.242188 360.128906 L 97.757812 352.359375 C 108.019531 350.394531 118.394531 348.261719 128.59375 346.019531 L 130.296875 353.742188 C 120.023438 356.003906 109.574219 358.15625 99.242188 360.128906 " fill-opacity="1" fill-rule="nonzero"/><g clip-path="url(#cd2ecfd271)"><path fill="#033792" d="M 86.6875 354.417969 C 81.449219 359.910156 77.097656 363.574219 74.539062 364.539062 C 76.808594 364.175781 81.835938 363.339844 88.875 362.0625 L 87.464844 354.28125 C 87.199219 354.328125 86.945312 354.371094 86.6875 354.417969 " fill-opacity="1" fill-rule="nonzero"/></g><path fill="#033792" d="M 300.398438 59.875 L 288.160156 62.101562 L 289.371094 66.804688 L 304.902344 64.378906 C 303.679688 63.371094 302.121094 61.816406 300.398438 59.875 " fill-opacity="1" fill-rule="nonzero"/></g></g></g></svg>